<svg width="28" height="28" viewBox="0 0 28 28" fill="none" xmlns="http://www.w3.org/2000/svg">
<path fill-rule="evenodd" clip-rule="evenodd" d="M14 28C21.732 28 28 21.732 28 14C28 6.26801 21.732 0 14 0C6.26801 0 0 6.26801 0 14C0 21.732 6.26801 28 14 28ZM10.5896 16.1007V17.8883H5.28317V16.1007H7.01915V10.949C6.92886 11.0731 6.76471 11.2221 6.52668 11.3959C6.28865 11.5614 6.0301 11.7062 5.75103 11.8303C5.47196 11.9545 5.22161 12.0166 5 12.0166V10.1917C5.22161 10.1917 5.44733 10.1338 5.67715 10.0179C5.91518 9.90207 6.13269 9.76966 6.32969 9.62069C6.52668 9.46345 6.68673 9.3269 6.80985 9.21103C6.94118 9.0869 7.01094 9.01655 7.01915 9H9.02599V16.1007H10.5896ZM17.8238 15.2193C17.8238 15.7821 17.6761 16.2745 17.3806 16.6966C17.0851 17.1103 16.6911 17.4331 16.1986 17.6648C15.7144 17.8883 15.1767 18 14.5858 18C14.003 18 13.4654 17.8841 12.9729 17.6524C12.4887 17.4124 12.0988 17.0772 11.8033 16.6469C11.5078 16.2166 11.3601 15.7159 11.3601 15.1448C11.3601 14.8303 11.4216 14.549 11.5447 14.3007C11.6679 14.0441 11.8238 13.8248 12.0126 13.6428C12.2014 13.4524 12.3902 13.2993 12.5789 13.1834C12.3081 13.0345 12.0783 12.8152 11.8895 12.5255C11.7089 12.2359 11.6186 11.9297 11.6186 11.6069C11.6186 11.1931 11.7089 10.829 11.8895 10.5145C12.07 10.2 12.3081 9.93517 12.6036 9.72C12.899 9.50483 13.2192 9.34345 13.5639 9.23586C13.9086 9.12828 14.2493 9.07448 14.5858 9.07448C14.9223 9.07448 15.2629 9.12828 15.6077 9.23586C15.9606 9.34345 16.2848 9.50483 16.5803 9.72C16.8758 9.9269 17.1138 10.1876 17.2944 10.5021C17.4832 10.8083 17.5776 11.1683 17.5776 11.5821C17.5776 11.9048 17.4791 12.2193 17.2821 12.5255C17.0933 12.8234 16.8635 13.0428 16.5926 13.1834C16.8963 13.3655 17.1754 13.6303 17.4298 13.9779C17.6925 14.3172 17.8238 14.731 17.8238 15.2193ZM13.6131 11.6441C13.6131 11.9338 13.7157 12.1531 13.9209 12.3021C14.1343 12.4428 14.356 12.5131 14.5858 12.5131C14.8156 12.5131 15.0372 12.4428 15.2506 12.3021C15.464 12.1531 15.5707 11.9338 15.5707 11.6441C15.5707 11.4041 15.4722 11.2097 15.2752 11.0607C15.0865 10.9034 14.8566 10.8248 14.5858 10.8248C14.3149 10.8248 14.0851 10.9034 13.8963 11.0607C13.7075 11.2179 13.6131 11.4124 13.6131 11.6441ZM15.8293 15.0952C15.8293 14.7476 15.7021 14.4786 15.4476 14.2883C15.2014 14.0979 14.9141 14.0028 14.5858 14.0028C14.2493 14.0028 13.9579 14.1021 13.7116 14.3007C13.4736 14.4993 13.3546 14.7683 13.3546 15.1076C13.3546 15.4303 13.4777 15.6952 13.7239 15.9021C13.9784 16.1007 14.2698 16.2 14.5981 16.2C14.9264 16.2 15.2137 16.0966 15.4599 15.8897C15.7062 15.6745 15.8293 15.4097 15.8293 15.0952ZM23 14.2759V12.6869H21.8304V11.3959H20.0575V12.6869H18.9001V14.2759H20.0575V15.5669H21.8304V14.2759H23Z" fill="white"/>
</svg>
