<svg width="107" height="28" viewBox="0 0 107 28" fill="none" xmlns="http://www.w3.org/2000/svg">
<path fill-rule="evenodd" clip-rule="evenodd" d="M11.2309 11.9598C9.94442 12.3998 8.57629 12.6198 6.84061 12.6198C3.18546 12.6198 0.0612183 10.2798 0.0612183 6.71979C0.0612183 2.73979 2.94042 0.0397949 7.249 0.0397949C8.86217 0.0397949 10.1486 0.339795 11.2105 0.799795L10.5162 2.67979C10.169 2.37979 9.02553 1.69979 7.12649 1.69979C4.14519 1.69979 2.47076 3.51979 2.47076 6.3198C2.47076 9.27979 4.59442 11.0598 6.94271 11.0598C7.77992 11.0598 8.3721 10.9798 8.86217 10.8198C8.94385 10.1598 8.94385 8.9198 8.94385 8.2998C8.94385 7.4998 8.94385 6.8598 8.86217 6.27979H11.2717C11.2309 6.97979 11.2309 7.81979 11.2309 8.65979C11.2309 9.55979 11.2309 10.9798 11.2717 11.9398L11.2309 11.9598Z" fill="white"/>
<path fill-rule="evenodd" clip-rule="evenodd" d="M0.0612183 22.0398C0.0612183 17.9198 3.14462 15.3998 6.96313 15.3998C8.57629 15.3998 9.63813 15.5798 10.6387 16.0398L9.90358 17.9998C9.57687 17.5598 8.51504 16.9998 6.98355 16.9998C4.36981 16.9998 2.5116 18.7198 2.5116 21.6598C2.5116 24.4598 4.45149 26.2998 6.98355 26.2998C8.1679 26.2998 9.10721 26.0598 10.0261 25.4798L10.7 27.0398C9.49519 27.6998 8.29042 27.9398 6.61599 27.9398C2.89958 27.9398 0.0612183 25.5398 0.0612183 22.0398Z" fill="white"/>
<path fill-rule="evenodd" clip-rule="evenodd" d="M17.3772 15.4198C13.6404 15.4198 10.7816 17.9798 10.7816 21.8798C10.7816 25.5398 13.4566 27.9598 17.3772 27.9598C21.0528 27.9598 23.9524 25.4398 23.9524 21.5198C23.9524 17.8398 21.2979 15.4198 17.3772 15.4198ZM17.3772 26.3598C14.8656 26.3598 13.2933 24.4598 13.2933 21.6798C13.2933 18.8998 14.8248 17.0198 17.3772 17.0198C19.7868 17.0198 21.4612 18.8598 21.4612 21.6798C21.4612 24.4798 19.8276 26.3598 17.3772 26.3598Z" fill="white"/>
<path fill-rule="evenodd" clip-rule="evenodd" d="M19.5826 0.159818H17.4181C15.8049 3.79982 13.2933 9.45982 11.823 12.4598H14.1101C14.2326 12.0798 14.498 11.5198 14.6818 11.0798C14.9881 10.4798 15.274 9.73982 15.5395 9.05982H20.6444C20.8895 9.73982 21.1958 10.4398 21.4612 11.0998C21.645 11.5598 21.8083 12.0198 21.9717 12.4598H24.6059C22.8906 8.67982 20.869 3.61982 19.5826 0.159818ZM16.1929 7.39982C16.4379 6.79982 16.7646 6.11982 17.0097 5.49982C17.4793 4.37982 17.9286 3.33982 18.2757 2.39982C18.8066 3.95982 19.3988 5.63982 20.1339 7.39982H16.1929Z" fill="white"/>
<path fill-rule="evenodd" clip-rule="evenodd" d="M36.3677 27.7598C36.3677 24.5398 36.2656 21.1798 36.1022 18.2998C35.8981 18.8798 35.653 19.5198 35.3671 20.2998C34.4891 22.6398 33.3864 25.6998 32.59 27.7598H30.4868C29.4045 24.6598 28.0977 20.8598 27.2605 18.2998C26.9542 21.1398 26.6479 24.5998 26.5253 27.7598H24.4017C25.0143 23.5998 25.3206 19.7198 25.4839 15.5998H28.3427C28.9349 17.6198 29.7517 19.8198 30.5276 21.9398C30.9973 23.2198 31.4261 24.3398 31.7732 25.4598C32.9372 22.6198 34.3461 18.6798 35.4488 15.5998H38.1851C38.1851 19.0998 38.4914 23.7598 38.8589 27.7598H36.3677Z" fill="white"/>
<path fill-rule="evenodd" clip-rule="evenodd" d="M37.062 12.4398C37.062 9.21977 36.9599 5.85977 36.7965 2.95977C36.5719 3.53977 36.3269 4.19977 36.0206 4.97977C35.1834 7.27977 34.0603 10.3798 33.2639 12.4398H31.1607C30.0784 9.33977 28.7715 5.53977 27.9343 2.95977C27.6076 5.81977 27.2809 9.27977 27.1992 12.4398H25.0755C25.6881 8.27977 25.9944 4.39977 26.1578 0.25977H29.0166C29.6087 2.25977 30.4255 4.47977 31.2015 6.57977C31.6507 7.85977 32.0795 8.99977 32.4471 10.1198C33.611 7.25977 35.02 3.31977 36.1023 0.25977H38.8589C38.8589 3.73977 39.1652 8.41977 39.5328 12.4398H37.062Z" fill="white"/>
<path fill-rule="evenodd" clip-rule="evenodd" d="M51.7234 27.7598C51.7234 24.5398 51.6213 21.1798 51.458 18.2998C51.2334 18.8798 50.9883 19.5198 50.682 20.2998C49.8244 22.6398 48.7217 25.6998 47.9253 27.7598H45.8017C44.699 24.6598 43.4534 20.8598 42.5958 18.2998C42.269 21.1398 41.9423 24.5998 41.8198 27.7598H39.7166C40.3292 23.5998 40.615 19.7198 40.7784 15.5998H43.6576C44.2498 17.6198 45.0461 19.8198 45.8221 21.9398C46.2918 23.2198 46.7206 24.3398 47.0881 25.4598C48.2521 22.6198 49.6406 18.6798 50.7433 15.5998H53.4795C53.4795 19.0998 53.7858 23.7598 54.1534 27.7598H51.7234Z" fill="white"/>
<path fill-rule="evenodd" clip-rule="evenodd" d="M47.3128 5.87974C48.5992 5.51974 49.5998 4.39974 49.5998 3.23974C49.5998 1.39974 47.8232 0.279743 44.7807 0.279743H40.9622C41.0847 2.65974 41.0847 4.09974 41.0847 6.51974C41.0847 8.79974 41.0847 10.1797 40.9622 12.4397H44.8215C48.3746 12.4397 50.1307 11.1597 50.1307 8.79974C50.1511 7.33974 49.0484 6.25974 47.3128 5.87974ZM43.3309 1.87974C43.6576 1.79974 44.1477 1.79974 44.5152 1.79974C46.5572 1.79974 47.374 2.43974 47.374 3.53974C47.374 4.69974 46.4347 5.33974 44.454 5.33974H43.29C43.2696 4.11974 43.2696 2.89974 43.3309 1.87974ZM44.5561 10.8397H43.3105C43.2696 9.49974 43.2696 8.27974 43.2696 6.91974H44.5152C46.8023 6.91974 47.8641 7.57974 47.8641 8.85974C47.8641 10.1197 47.0473 10.8397 44.5561 10.8397Z" fill="white"/>
<path fill-rule="evenodd" clip-rule="evenodd" d="M53.5816 9.35974C53.5816 9.83974 53.6021 10.2997 53.6021 10.7997C55.4807 10.7997 57.8902 10.7997 59.1767 10.7197L58.5232 12.4397H51.2538C51.3763 10.1797 51.3763 8.79974 51.3763 6.51974C51.3763 4.07974 51.3763 2.65974 51.2538 0.279743H53.6633C53.6429 1.09974 53.6429 1.83974 53.6225 2.45974C53.6021 3.63974 53.5408 5.01974 53.5408 6.51974C53.5408 7.59974 53.5612 8.45974 53.5816 9.35974Z" fill="white"/>
<path fill-rule="evenodd" clip-rule="evenodd" d="M55.5215 27.7598C55.644 25.5798 55.644 24.1398 55.644 21.8798C55.644 19.3998 55.644 17.9998 55.5215 15.5798H57.9311C57.8085 17.9798 57.8085 19.3998 57.8085 21.8798C57.8085 24.1398 57.8085 25.5798 57.9311 27.7598H55.5215Z" fill="white"/>
<path fill-rule="evenodd" clip-rule="evenodd" d="M66.9362 17.8598C66.3849 17.3998 65.5068 16.9598 64.2612 16.9598C62.7502 16.9598 61.9946 17.5998 61.9946 18.4598C61.9946 19.1798 62.3418 19.6998 63.9549 20.3798C64.3429 20.5398 64.7921 20.7398 65.2005 20.9198C67.12 21.7798 67.896 22.6998 67.896 24.3598C67.896 26.7198 65.9356 27.9398 63.3219 27.9398C61.7904 27.9398 60.4223 27.6998 59.2379 27.1598L59.9322 25.3798C60.8715 25.9798 62.0967 26.3998 63.2811 26.3998C64.9759 26.3998 65.5681 25.6198 65.5681 24.6798C65.5681 23.7998 64.9555 23.2398 63.6895 22.6798C63.2606 22.4798 62.6685 22.2198 62.2397 22.0398C60.5244 21.2598 59.6872 20.3398 59.6872 18.7798C59.6872 16.8398 61.5045 15.3798 64.2816 15.3798C65.8131 15.3798 66.9158 15.6198 67.6713 16.0198L66.9362 17.8598Z" fill="white"/>
<path fill-rule="evenodd" clip-rule="evenodd" d="M60.1364 12.4397C60.2589 10.1797 60.2589 8.79974 60.2589 6.51974C60.2589 4.07974 60.2589 2.65974 60.1364 0.279743H62.546C62.546 0.859743 62.5255 1.41974 62.5255 1.89974C62.5051 3.43974 62.4438 4.65974 62.4438 6.51974C62.4438 8.23974 62.4847 9.43974 62.5255 10.8997C62.5255 11.3597 62.546 11.8997 62.546 12.4597H60.1364" fill="white"/>
<path fill-rule="evenodd" clip-rule="evenodd" d="M74.7774 0.279743C74.6958 2.65974 74.6958 4.09974 74.6958 6.51974C74.6958 8.79974 74.6958 10.1797 74.7774 12.4397H72.6129C70.3668 9.03974 67.8551 5.37974 66.0786 2.95974C66.0786 7.03974 66.0786 9.21974 66.2011 12.4397H64.0162C64.1387 10.1797 64.1387 8.79974 64.1387 6.51974C64.1387 4.07974 64.1387 2.65974 64.0162 0.279743H66.5278C68.9374 3.43974 71.2856 6.75974 72.7559 8.97974C72.7559 5.37974 72.7559 3.13974 72.6334 0.279743H74.7774Z" fill="white"/>
<path fill-rule="evenodd" clip-rule="evenodd" d="M76.0435 17.8598C75.4717 17.3998 74.6141 16.9598 73.3685 16.9598C71.8574 16.9598 71.0814 17.5998 71.0814 18.4598C71.0814 19.1798 71.449 19.6998 73.0622 20.3798C73.4706 20.5398 73.8994 20.7398 74.3078 20.9198C76.2068 21.7798 77.0032 22.6998 77.0032 24.3598C77.0032 26.7198 75.0429 27.9398 72.4496 27.9398C70.8772 27.9398 69.55 27.6998 68.3656 27.1598L69.0599 25.3798C69.9992 25.9798 71.1835 26.3998 72.4087 26.3998C74.1036 26.3998 74.6958 25.6198 74.6958 24.6798C74.6958 23.7998 74.0832 23.2398 72.8171 22.6798C72.3883 22.4798 71.7961 22.2198 71.3673 22.0398C69.6521 21.2598 68.8148 20.3398 68.8148 18.7798C68.8148 16.8398 70.6322 15.3798 73.4093 15.3798C74.9408 15.3798 76.0435 15.6198 76.799 16.0198L76.0435 17.8598Z" fill="white"/>
<path fill-rule="evenodd" clip-rule="evenodd" d="M87.1315 11.9598C85.845 12.3998 84.4565 12.6198 82.7412 12.6198C79.086 12.6198 75.9414 10.2798 75.9414 6.71979C75.9414 2.73979 78.841 0.0397949 83.17 0.0397949C84.7628 0.0397949 86.0696 0.339795 87.1315 0.799795L86.4372 2.63979C85.9063 2.11979 84.4973 1.67979 83.1087 1.67979C80.0254 1.67979 78.3713 3.49979 78.3713 6.2998C78.3713 9.2598 80.4746 11.0398 82.8433 11.0398C83.6805 11.0398 84.2523 10.9598 84.7219 10.7998C84.8036 10.1398 84.8036 8.89979 84.8036 8.27979C84.8036 7.47979 84.8036 6.8398 84.7219 6.25979H87.1519C87.111 6.95979 87.111 7.7998 87.111 8.6398C87.111 9.53979 87.111 10.9598 87.1519 11.9198L87.1315 11.9598Z" fill="white"/>
<path fill-rule="evenodd" clip-rule="evenodd" d="M78.2488 27.7598C78.3713 25.5798 78.3713 24.1398 78.3713 21.8798C78.3713 19.3998 78.3713 17.9998 78.2488 15.5798H80.6583C80.5358 17.9798 80.5358 19.3998 80.5358 21.8798C80.5358 24.1398 80.5358 25.5798 80.6583 27.7598H78.2488Z" fill="white"/>
<path fill-rule="evenodd" clip-rule="evenodd" d="M88.3771 15.4198C84.6402 15.4198 81.8019 17.9798 81.8019 21.8798C81.8019 25.5398 84.4565 27.9598 88.3771 27.9598C92.0935 27.9598 94.9727 25.4398 94.9727 21.5198C94.9727 17.8398 92.3181 15.4198 88.3771 15.4198ZM88.3771 26.3598C85.9267 26.3598 84.2931 24.4598 84.2931 21.6798C84.2931 18.8998 85.8654 17.0198 88.3771 17.0198C90.807 17.0198 92.5019 18.8598 92.5019 21.6798C92.4815 24.4798 90.8479 26.3598 88.3771 26.3598Z" fill="white"/>
<path fill-rule="evenodd" clip-rule="evenodd" d="M106.816 15.5798C106.734 17.9798 106.734 19.3998 106.734 21.8798C106.734 24.1398 106.734 25.5798 106.816 27.7598H104.733C102.405 24.3598 99.9143 20.6998 98.1377 18.2998C98.1377 22.3798 98.1377 24.6198 98.2603 27.7598H96.157V27.4198C96.1774 26.3598 96.2795 23.8998 96.2795 21.8798C96.2795 19.3998 96.1979 16.7998 96.157 15.5798H98.6074C101.058 18.7798 103.345 22.1198 104.835 24.3198C104.835 20.7998 104.835 18.4598 104.713 15.5798H106.816Z" fill="white"/>
</svg>
