<svg width="25" height="24" viewBox="0 0 25 24" fill="none" xmlns="http://www.w3.org/2000/svg">
<path d="M23.0726 24.0001C23.8041 24.0001 24.3972 23.407 24.3972 22.6755V1.32459C24.3972 0.592969 23.8041 0 23.0726 0H1.72181C0.990092 0 0.397217 0.592969 0.397217 1.32459V22.6755C0.397217 23.407 0.990092 24.0001 1.72181 24.0001H23.0726Z" fill="#395185"/>
<path d="M16.9576 24.0002V14.7062H20.0774L20.5444 11.0841H16.9576V8.7715C16.9576 7.72281 17.2489 7.00816 18.7528 7.00816L20.6708 7.00731V3.76778C20.3389 3.72362 19.2004 3.625 17.8759 3.625C15.1105 3.625 13.2173 5.31297 13.2173 8.41291V11.0841H10.0896V14.7062H13.2173V24.0002H16.9576Z" fill="white"/>
</svg>
