<svg width="30" height="30" viewBox="0 0 30 30" fill="none" xmlns="http://www.w3.org/2000/svg">
<path d="M25.7149 15.3564L15.816 4.3484C15.3991 3.88387 14.5984 3.88387 14.1815 4.3484L4.28265 15.3564C4.14017 15.5145 4.04664 15.7105 4.01345 15.9208C3.98025 16.1311 4.00882 16.3465 4.09567 16.5408C4.27165 16.9382 4.66541 17.1936 5.09986 17.1936H7.29961V24.8992C7.29961 25.1912 7.41549 25.4711 7.62176 25.6776C7.82803 25.884 8.10779 26 8.39949 26H11.6991C11.9908 26 12.2706 25.884 12.4769 25.6776C12.6831 25.4711 12.799 25.1912 12.799 24.8992V20.496H17.1985V24.8992C17.1985 25.1912 17.3144 25.4711 17.5207 25.6776C17.7269 25.884 18.0067 26 18.2984 26H21.598C21.8897 26 22.1695 25.884 22.3757 25.6776C22.582 25.4711 22.6979 25.1912 22.6979 24.8992V17.1936H24.8976C25.1107 17.1945 25.3193 17.1334 25.4982 17.0176C25.6771 16.9019 25.8185 16.7366 25.9051 16.5418C25.9918 16.3471 26.0199 16.1313 25.9861 15.9208C25.9523 15.7103 25.8581 15.5142 25.7149 15.3564Z" fill="#F4D21F"/>
</svg>
