<svg width="30" height="30" viewBox="0 0 30 30" fill="none" xmlns="http://www.w3.org/2000/svg">
<g clip-path="url(#clip0)">
<path d="M15 4C17.1756 4 19.3024 4.64514 21.1113 5.85383C22.9203 7.06253 24.3302 8.7805 25.1627 10.7905C25.9953 12.8005 26.2131 15.0122 25.7887 17.146C25.3643 19.2798 24.3166 21.2398 22.7782 22.7782C21.2399 24.3166 19.2798 25.3642 17.146 25.7886C15.0123 26.2131 12.8005 25.9952 10.7905 25.1627C8.78054 24.3301 7.06258 22.9202 5.85388 21.1113C4.64518 19.3023 4.00004 17.1756 4.00004 15C4.00332 12.0836 5.1633 9.28763 7.22549 7.22544C9.28768 5.16325 12.0837 4.00328 15 4V4ZM15 24.1667C16.813 24.1667 18.5853 23.6291 20.0928 22.6218C21.6002 21.6146 22.7751 20.1829 23.469 18.5079C24.1628 16.8329 24.3443 14.9898 23.9906 13.2117C23.6369 11.4335 22.7638 9.80017 21.4819 8.51819C20.1999 7.23621 18.5665 6.36317 16.7884 6.00947C15.0102 5.65577 13.1671 5.8373 11.4921 6.5311C9.81713 7.22491 8.38549 8.39982 7.37824 9.90727C6.37099 11.4147 5.83338 13.187 5.83338 15C5.83614 17.4303 6.8028 19.7603 8.52128 21.4788C10.2398 23.1973 12.5697 24.1639 15 24.1667Z" fill="#F4D21F"/>
<path d="M15 6.75C16.6317 6.75 18.2267 7.23385 19.5835 8.14038C20.9402 9.0469 21.9976 10.3354 22.622 11.8429C23.2464 13.3504 23.4098 15.0092 23.0915 16.6095C22.7731 18.2098 21.9874 19.6798 20.8336 20.8336C19.6798 21.9874 18.2098 22.7732 16.6095 23.0915C15.0091 23.4098 13.3503 23.2464 11.8429 22.622C10.3354 21.9976 9.04689 20.9402 8.14037 19.5835C7.23385 18.2267 6.75 16.6317 6.75 15C6.75245 12.8127 7.62243 10.7157 9.16908 9.16908C10.7157 7.62244 12.8127 6.75246 15 6.75ZM15 11.3333C14.8187 11.3333 14.6415 11.3871 14.4907 11.4878C14.34 11.5885 14.2225 11.7317 14.1531 11.8992C14.0837 12.0667 14.0656 12.251 14.1009 12.4288C14.1363 12.6066 14.2236 12.77 14.3518 12.8982C14.48 13.0264 14.6433 13.1137 14.8212 13.1491C14.999 13.1844 15.1833 13.1663 15.3508 13.0969C15.5183 13.0275 15.6615 12.91 15.7622 12.7593C15.8629 12.6085 15.9167 12.4313 15.9167 12.25C15.9167 12.0069 15.8201 11.7737 15.6482 11.6018C15.4763 11.4299 15.2431 11.3333 15 11.3333ZM20.5 13.1667C20.5 12.9854 20.4462 12.8081 20.3455 12.6574C20.2448 12.5066 20.1016 12.3892 19.9341 12.3198C19.7666 12.2504 19.5823 12.2322 19.4045 12.2676C19.2267 12.303 19.0633 12.3903 18.9351 12.5185C18.807 12.6467 18.7196 12.81 18.6843 12.9878C18.6489 13.1656 18.6671 13.35 18.7364 13.5175C18.8058 13.685 18.9233 13.8281 19.0741 13.9288C19.2248 14.0296 19.402 14.0833 19.5833 14.0833C19.8264 14.0833 20.0596 13.9868 20.2315 13.8148C20.4034 13.6429 20.5 13.4098 20.5 13.1667ZM11.3333 18.6667H18.6667L19.2396 14.4271L16.8333 15.9167L15 13.1667L13.1667 15.9167L10.875 14.4271L11.3333 18.6667ZM10.4167 14.0833C10.598 14.0833 10.7752 14.0296 10.9259 13.9288C11.0767 13.8281 11.1942 13.685 11.2636 13.5175C11.3329 13.35 11.3511 13.1656 11.3157 12.9878C11.2803 12.81 11.193 12.6467 11.0648 12.5185C10.9366 12.3903 10.7733 12.303 10.5955 12.2676C10.4177 12.2322 10.2334 12.2504 10.0659 12.3198C9.89837 12.3892 9.75521 12.5066 9.65448 12.6574C9.55376 12.8081 9.5 12.9854 9.5 13.1667C9.5 13.4098 9.59657 13.6429 9.76848 13.8148C9.94039 13.9868 10.1735 14.0833 10.4167 14.0833Z" fill="#F4D21F"/>
</g>
<defs>
<clipPath id="clip0">
<rect width="22" height="22" fill="white" transform="matrix(-1 0 0 1 26 4)"/>
</clipPath>
</defs>
</svg>
