<svg width="25" height="24" viewBox="0 0 25 24" fill="none" xmlns="http://www.w3.org/2000/svg">
<path d="M17.2475 0H7.54695C3.60457 0 0.397217 3.20735 0.397217 7.14973V16.8503C0.397217 20.7926 3.60457 24 7.54695 24H17.2475C21.1899 24 24.3972 20.7926 24.3972 16.8503V7.14973C24.3972 3.20735 21.1898 0 17.2475 0ZM21.9828 16.8503C21.9828 19.4655 19.8627 21.5856 17.2475 21.5856H7.54695C4.93172 21.5856 2.81162 19.4655 2.81162 16.8503V7.14973C2.81162 4.53446 4.93172 2.4144 7.54695 2.4144H17.2475C19.8627 2.4144 21.9828 4.53446 21.9828 7.14973V16.8503Z" fill="url(#paint0_linear)"/>
<path d="M12.3972 5.79275C8.97453 5.79275 6.18996 8.57731 6.18996 12C6.18996 15.4226 8.97453 18.2072 12.3972 18.2072C15.8199 18.2072 18.6045 15.4226 18.6045 12C18.6045 8.57727 15.8199 5.79275 12.3972 5.79275ZM12.3972 15.7929C10.3025 15.7929 8.60436 14.0948 8.60436 12C8.60436 9.90525 10.3025 8.20715 12.3972 8.20715C14.492 8.20715 16.1901 9.90525 16.1901 12C16.1901 14.0947 14.4919 15.7929 12.3972 15.7929Z" fill="url(#paint1_linear)"/>
<path d="M18.6163 7.32681C19.4378 7.32681 20.1037 6.66088 20.1037 5.83942C20.1037 5.01796 19.4378 4.35204 18.6163 4.35204C17.7949 4.35204 17.129 5.01796 17.129 5.83942C17.129 6.66088 17.7949 7.32681 18.6163 7.32681Z" fill="url(#paint2_linear)"/>
<defs>
<linearGradient id="paint0_linear" x1="18.6163" y1="23.9297" x2="18.6163" y2="0.186013" gradientUnits="userSpaceOnUse">
<stop stop-color="#E09B3D"/>
<stop offset="0.3" stop-color="#C74C4D"/>
<stop offset="0.6" stop-color="#C21975"/>
<stop offset="1" stop-color="#7024C4"/>
</linearGradient>
<linearGradient id="paint1_linear" x1="18.6163" y1="23.9297" x2="18.6163" y2="0.186013" gradientUnits="userSpaceOnUse">
<stop stop-color="#E09B3D"/>
<stop offset="0.3" stop-color="#C74C4D"/>
<stop offset="0.6" stop-color="#C21975"/>
<stop offset="1" stop-color="#7024C4"/>
</linearGradient>
<linearGradient id="paint2_linear" x1="18.6163" y1="23.9297" x2="18.6163" y2="0.186013" gradientUnits="userSpaceOnUse">
<stop stop-color="#E09B3D"/>
<stop offset="0.3" stop-color="#C74C4D"/>
<stop offset="0.6" stop-color="#C21975"/>
<stop offset="1" stop-color="#7024C4"/>
</linearGradient>
</defs>
</svg>
