<svg width="493" height="120" viewBox="0 0 493 120" fill="none" xmlns="http://www.w3.org/2000/svg">
<path d="M39.7701 60.4L40.4701 56.64C41.2401 52.22 40.5501 50.62 40.5501 50.62C40.5501 50.62 41.6201 50.01 44.1901 50.01C49.5901 50.01 50.2001 52.05 49.3401 56.92L48.7301 60.4H55.6401C55.6401 60.4 56.1301 60.97 56.1301 61.87C56.1301 63.05 55.3101 63.91 53.7601 63.91H48.0801L44.8501 82.07C43.9901 86.82 45.4301 89.27 48.1201 89.27C50.9001 89.27 52.0401 87.31 52.0401 87.31C52.8201 87.31 53.3101 88.09 53.1501 89.11C52.7801 92.18 49.0201 95.33 44.1901 95.33C39.5701 95.33 35.7201 91.85 35.7201 86.25C35.7201 84.66 35.8401 82.2 36.4901 78.64L39.0701 63.87H34.5701C34.5701 63.87 34.0801 63.3 34.0801 62.4C34.0801 61.22 34.9401 60.36 36.4501 60.36H39.7601V60.4H39.7701Z" fill="#D26D44"/>
<path d="M64.2388 49.9301C65.1388 49.9301 66.0388 50.1301 66.8988 50.5801C68.0388 51.1901 68.8988 52.0901 69.4788 53.2801C69.8888 54.1401 70.0888 55.0801 70.0888 56.0601C70.0888 57.8601 69.3888 59.3301 68.0388 60.4801C66.9688 61.3401 65.7888 61.7901 64.4388 61.7901C62.9688 61.7901 61.7088 61.3001 60.6388 60.3201C59.4088 59.1701 58.7988 57.6601 58.7988 55.7401C58.7988 53.8601 59.3688 52.4301 60.4788 51.3701C61.4988 50.4201 62.7288 49.9301 64.2388 49.9301ZM63.9888 52.9101C63.3788 52.9101 63.0488 53.4401 63.0488 54.5001C63.0488 55.8901 63.3388 57.1201 63.8288 58.2201C64.0388 58.6301 64.3188 58.8701 64.6488 58.8701C65.2588 58.8701 65.5488 58.3401 65.5488 57.2301C65.5488 56.6201 65.4588 56.0001 65.3388 55.3101C65.2188 54.6101 65.0588 54.0801 64.8488 53.6301C64.6888 53.2001 64.3988 52.9501 63.9888 52.9101Z" fill="#D26D44"/>
<path d="M58.9998 78.52C60.3098 75.86 62.4797 73.57 65.5397 72.75C69.5897 71.68 70.4098 73.57 74.8198 76.8C77.3598 78.64 78.4198 79.82 81.9798 79.87C87.8298 79.91 92.5398 77.25 95.0698 71.93C95.5198 70.99 94.1198 70.17 93.6798 71.11C89.5898 79.62 82.0598 79.29 75.0598 74.22C72.8098 72.58 72.0298 70.99 68.7998 70.78C63.9698 70.46 59.6798 73.52 57.5898 77.69C57.1198 78.64 58.5098 79.46 58.9998 78.52Z" fill="#D26D44"/>
<path d="M58.9998 87.6001C60.3098 84.9401 62.4797 82.6501 65.5397 81.8301C69.5897 80.7601 70.4098 82.6501 74.8198 85.8801C77.3598 87.7201 78.4198 88.9101 81.9798 88.9501C87.8298 88.9901 92.5398 86.3301 95.0698 81.0101C95.5198 80.0701 94.1198 79.2501 93.6798 80.1901C89.5898 88.7001 82.0598 88.3701 75.0598 83.3001C72.8098 81.6701 72.0298 80.0701 68.7998 79.8701C63.9698 79.5401 59.6798 82.6101 57.5898 86.7801C57.1198 87.7201 58.5098 88.5401 58.9998 87.6001Z" fill="#D26D44"/>
<path d="M38.0189 41.91C37.6989 42.28 36.8789 42.97 36.8789 42.97C30.4189 47.14 24.2789 51.52 17.8989 55.41C15.8589 56.68 13.4389 57.58 11.0689 58.11C9.75894 58.39 7.50894 58.03 6.89894 57.13C5.66894 55.33 7.67894 54.39 8.98894 53.49C23.9589 43.22 36.7189 30.75 46.1289 15.12C47.8089 12.34 48.5389 8.78003 48.9489 5.47003C49.5589 0.680027 51.7689 -0.869973 55.9489 1.67003C57.7889 2.77003 59.4189 4.33003 60.8589 5.96003C62.6589 8.01003 62.4489 9.23003 60.5289 12.5C74.2789 25.88 88.7089 38.23 107.569 43.79C108.999 44.2 110.519 44.69 111.789 45.51C112.559 45.96 113.339 47.06 113.339 47.88C113.339 48.7 112.479 50.01 111.739 50.21C104.739 51.93 97.6689 54.02 90.4689 52.62C87.6889 52.09 84.8189 49.84 82.7789 47.63C75.0089 39.28 67.5589 30.66 59.9989 22.19C58.9389 21 57.6289 20.02 56.4789 19.04C50.8189 26.2 44.1089 34.18 38.0189 41.91Z" fill="#D26D44"/>
<path d="M55.2794 104.33L68.7294 103.23C71.9994 102.9 75.1894 102.66 78.3494 102.29C87.0194 101.31 95.6094 99.63 104.399 99.84C107.469 99.92 110.459 100.25 113.319 101.39C117.779 103.19 120.599 107.65 120.029 111.9C82.4394 108.75 45.2094 111.21 8.76941 119.18C7.29941 118.32 6.06941 117.59 4.80941 116.93C4.14941 116.56 3.36941 116.4 2.71941 116.07C1.07941 115.25 0.589414 113.9 0.879414 112.1C18.9494 109.57 37.0794 106.95 55.2794 104.33Z" fill="#D26D44"/>
<path d="M136.039 59.28H133.539V54.77H136.039V47.63H141.119V54.77H144.199V59.28H141.119V75.98H136.039V59.28Z" fill="#09090C"/>
<path d="M151.289 67.63C151.929 70.25 154.139 71.84 156.829 71.84C158.459 71.84 160.319 71.38 161.569 69.86H167.299C164.449 76.62 157.999 76.69 157.019 76.69C149.399 76.69 145.789 70.43 145.789 65.54C145.789 60.68 149.429 54.08 157.099 54.08C163.549 54.08 167.989 59.05 167.989 65.39C167.989 66.15 167.989 66.87 167.879 67.66H151.299V67.63H151.289ZM162.709 63.11C161.989 60.42 159.709 58.9 157.139 58.9C154.329 58.9 152.089 60.57 151.259 63.11H162.709Z" fill="#09090C"/>
<path d="M171.249 54.77H175.919V57.54H175.999C177.779 54.58 181.159 54.09 182.829 54.09C188.599 54.09 193.449 58.53 193.449 65.4C193.449 71.21 189.539 76.71 182.829 76.71C181.119 76.71 178.429 76.26 176.449 73.71H176.379V83.08H171.289V54.77H171.249ZM176.029 65.35C176.029 69.41 178.649 71.8 182.059 71.8C185.699 71.8 188.319 69.03 188.319 65.31C188.319 62.46 186.539 58.9 182.249 58.9C178.529 58.9 176.029 61.63 176.029 65.35Z" fill="#09090C"/>
<path d="M201.569 47.64H196.479V75.95H201.569V47.64Z" fill="#09090C"/>
<path d="M227.099 65.39C227.099 71.54 222.319 76.66 215.829 76.66C209.379 76.66 204.559 71.58 204.559 65.39C204.559 59.2 209.299 54.04 215.829 54.04C222.359 54.04 227.099 59.2 227.099 65.39ZM209.689 65.39C209.689 68.84 212.119 71.8 215.839 71.8C219.599 71.8 221.989 68.8 221.989 65.39C221.989 61.97 219.639 58.9 215.839 58.9C212.079 58.9 209.689 61.94 209.689 65.39Z" fill="#09090C"/>
<path d="M241.479 61.52H230.859V66.04H241.479V61.52Z" fill="#09090C"/>
<path d="M244.209 54.77H249.869L254.759 68.69L259.659 54.77H265.309L256.729 75.98H252.749L244.209 54.77Z" fill="#09090C"/>
<path d="M288.029 65.39C288.029 71.54 283.249 76.66 276.759 76.66C270.309 76.66 265.489 71.58 265.489 65.39C265.489 59.2 270.229 54.04 276.759 54.04C283.289 54.04 288.029 59.2 288.029 65.39ZM270.619 65.39C270.619 68.84 273.049 71.8 276.769 71.8C280.529 71.8 282.919 68.8 282.919 65.39C282.919 61.97 280.529 58.9 276.769 58.9C273.009 58.9 270.619 61.94 270.619 65.39Z" fill="#09090C"/>
<path d="M312.239 75.94H307.579V73.05H307.499C306.179 74.91 303.939 76.62 300.519 76.62C294.869 76.62 290.049 71.88 290.049 65.39C290.049 58.71 294.869 54.01 300.679 54.01C304.589 54.01 306.449 56.14 307.049 56.9H307.129V47.6H312.199V75.94H312.239ZM295.129 65.35C295.129 69.03 297.629 71.8 301.239 71.8C304.839 71.8 307.419 69.07 307.419 65.35C307.419 61.59 304.769 58.9 301.239 58.9C297.829 58.9 295.129 61.48 295.129 65.35Z" fill="#09090C"/>
<path d="M337.509 75.94H332.839V73.06H332.759C330.289 76.44 326.799 76.63 325.659 76.63C320.269 76.63 315.299 72.38 315.299 65.51C315.299 58.83 319.969 54.01 325.809 54.01C328.849 54.01 331.199 55.26 332.749 57.69H332.829V54.69H337.499V75.94H337.509ZM320.399 65.54C320.399 69.15 322.939 71.8 326.619 71.8C330.259 71.8 332.689 69.14 332.689 65.31C332.689 61.63 330.259 58.9 326.619 58.9C322.939 58.9 320.399 61.71 320.399 65.54Z" fill="#09090C"/>
<path d="M347.459 70.86H342.369V75.94H347.459V70.86Z" fill="#09090C"/>
<path d="M373.629 69.07C372.079 73.55 368.429 76.66 363.159 76.66C355.189 76.66 351.439 70.51 351.439 65.2C351.439 60.27 355.039 54.05 362.969 54.05C368.319 54.05 372.229 57.2 373.629 61.79H367.899C366.909 59.86 365.089 58.87 362.889 58.87C358.829 58.87 356.559 61.87 356.559 65.25C356.559 68.89 359.029 71.78 362.889 71.78C363.769 71.78 366.499 71.63 367.899 69.01H373.629V69.07Z" fill="#09090C"/>
<path d="M398.289 65.39C398.289 71.54 393.509 76.66 387.019 76.66C380.529 76.66 375.749 71.58 375.749 65.39C375.749 59.2 380.489 54.04 387.019 54.04C393.549 54.04 398.289 59.2 398.289 65.39ZM380.879 65.39C380.879 68.84 383.309 71.8 387.029 71.8C390.749 71.8 393.179 68.8 393.179 65.39C393.179 61.97 390.789 58.9 387.029 58.9C383.269 58.9 380.879 61.94 380.879 65.39Z" fill="#09090C"/>
<path d="M401.329 54.77H405.999V56.7H406.079C407.559 54.62 409.989 54.05 411.579 54.05C413.699 54.05 416.319 54.96 417.759 57.35C418.979 55.68 421.099 54.05 424.549 54.05C429.709 54.05 433.199 57.58 433.199 63.53V75.93H428.119V64.67C428.119 62.77 427.889 58.87 423.949 58.87C420.039 58.87 419.809 62.78 419.809 64.67V75.94H414.729V64.67C414.729 62.77 414.499 58.87 410.559 58.87C406.649 58.87 406.429 62.78 406.429 64.67V75.94H401.339V54.77H401.329Z" fill="#09090C"/>
<path d="M443.149 70.86H438.059V75.94H443.149V70.86Z" fill="#09090C"/>
<path d="M466.859 75.94H462.189V74H462.109C460.289 76.31 457.899 76.66 456.609 76.66C448.599 76.66 448.029 69.57 448.029 66.26V54.77H453.119V65.54C453.119 67.93 453.349 71.8 457.439 71.8C461.539 71.8 461.759 67.89 461.759 65.54V54.77H466.839V75.94H466.859Z" fill="#09090C"/>
<path d="M492.119 75.94H487.459V73.06H487.379C484.909 76.44 481.419 76.63 480.279 76.63C474.899 76.63 469.919 72.38 469.919 65.51C469.919 58.83 474.589 54.01 480.429 54.01C483.469 54.01 485.819 55.26 487.369 57.69H487.449V54.69H492.109V75.94H492.119ZM475.009 65.54C475.009 69.15 477.549 71.8 481.229 71.8C484.869 71.8 487.299 69.14 487.299 65.31C487.299 61.63 484.869 58.9 481.229 58.9C477.589 58.9 475.009 61.71 475.009 65.54Z" fill="#09090C"/>
<path d="M148.519 106.02H150.189V112.06H148.049V107.97H134.269V112.06H132.129V106.02H133.799L140.029 92.01H142.369L148.519 106.02ZM146.219 106.02L141.179 94.43L136.129 106.02H146.219Z" fill="#09090C"/>
<path d="M168.399 99.99C168.399 104.75 164.749 108.33 160.069 108.33C155.379 108.33 151.729 104.76 151.729 99.99C151.729 95.23 155.339 91.62 160.069 91.62C164.789 91.62 168.399 95.23 168.399 99.99ZM153.879 99.99C153.879 103.6 156.459 106.38 160.069 106.38C163.679 106.38 166.259 103.6 166.259 99.99C166.259 96.38 163.679 93.56 160.069 93.56C156.459 93.56 153.879 96.38 153.879 99.99Z" fill="#09090C"/>
<path d="M187.099 103.29C186.029 105.67 183.729 108.33 179.319 108.33C173.889 108.33 170.789 104.12 170.789 99.96C170.789 96.15 173.729 91.62 179.319 91.62C183.019 91.62 185.879 93.68 187.099 96.86H184.719C183.129 93.72 180.079 93.6 179.359 93.6C175.669 93.6 173.009 96.42 173.009 99.95C173.009 103.6 175.909 106.38 179.359 106.38C181.549 106.38 183.599 105.31 184.719 103.29H187.099Z" fill="#09090C"/>
<path d="M199.249 92.01V93.96H195.119V107.97H192.969V93.96H188.839V92.01H199.249Z" fill="#09090C"/>
<path d="M214.999 92.01L205.789 113.57H203.489L206.149 107.21L199.879 91.97H202.459L207.459 104.4L212.699 91.97H214.999V92.01Z" fill="#09090C"/>
<path d="M230.319 92.01V107.97H228.179V93.96H219.249V107.97H217.109V92.01H230.319Z" fill="#09090C"/>
<path d="M236.159 92.01V98.8H245.089V92.01H247.239V107.97H245.089V100.75H236.159V107.97H234.019V92.01H236.159Z" fill="#09090C"/>
<path d="M267.199 107.97H265.179V104.99H265.099C264.189 106.38 262.359 108.36 258.869 108.36C254.069 108.36 250.329 104.87 250.329 99.91C250.329 96.1 253.109 91.65 258.829 91.65C260.219 91.65 263.159 91.85 265.099 94.78H265.179V92H267.199V107.97ZM252.479 100.07C252.479 103.72 255.459 106.42 258.869 106.42C262.359 106.42 265.139 103.6 265.139 100.11C265.139 96.5 262.439 93.6 258.789 93.6C255.329 93.56 252.479 96.34 252.479 100.07Z" fill="#09090C"/>
<path d="M279.819 92.01V98.8H288.759V92.01H290.899V107.97H288.759V100.75H279.819V107.97H277.679V92.01H279.819Z" fill="#09090C"/>
<path d="M310.859 107.97H308.839V104.99H308.799C307.879 106.38 306.059 108.36 302.569 108.36C297.769 108.36 294.039 104.87 294.039 99.91C294.039 96.1 296.819 91.65 302.529 91.65C303.919 91.65 306.889 91.85 308.799 94.78H308.839V92H310.859V107.97ZM296.139 100.07C296.139 103.72 299.119 106.42 302.529 106.42C306.019 106.42 308.799 103.6 308.799 100.11C308.799 96.5 306.099 93.6 302.449 93.6C298.999 93.56 296.139 96.34 296.139 100.07Z" fill="#09090C"/>
<path d="M316.699 92.01V104.91L326.229 92.01H328.369V107.96H326.229V95.06L316.699 107.96H314.509V92.01H316.699ZM318.839 86.38C319.079 87.77 320.229 88.4 321.419 88.4C322.609 88.4 323.759 87.77 323.999 86.38H325.819C325.539 88.01 324.309 90.07 321.369 90.07C318.429 90.07 317.239 88.05 316.919 86.38H318.839Z" fill="#09090C"/>
<path d="M337.769 92.01C341.499 92.01 342.489 94.35 342.489 96.26C342.489 97.77 341.659 99 340.339 99.56C341.969 100 343.039 101.5 343.039 103.37C343.039 105.83 341.299 107.97 337.919 107.97H332.009V92.01H337.769ZM334.199 98.8H337.609C339.319 98.8 340.309 97.8 340.309 96.26C340.309 93.92 338.089 93.96 337.609 93.96H334.199V98.8ZM334.199 106.02H337.689C340.229 106.02 340.909 104.51 340.909 103.4C340.909 102.73 340.709 100.78 337.689 100.78H334.199V106.02Z" fill="#09090C"/>
<path d="M348.209 92.01V104.91L357.739 92.01H359.879V107.97H357.739V95.07L348.209 107.97H346.069V92.01H348.209Z" fill="#09090C"/>
<path d="M365.719 92.01V106.03H372.589V92.01H374.729V106.03H381.589V92.01H383.739V106.03H386.399V112.06H384.259V107.97H363.499V92.01H365.719Z" fill="#09090C"/>
<path d="M404.939 107.97H402.879V104.99H402.839C401.929 106.38 400.099 108.36 396.609 108.36C391.799 108.36 388.069 104.87 388.069 99.91C388.069 96.1 390.849 91.65 396.559 91.65C397.949 91.65 400.929 91.85 402.829 94.78H402.869V92H404.929V107.97H404.939ZM390.209 100.07C390.209 103.72 393.189 106.42 396.599 106.42C400.089 106.42 402.869 103.6 402.869 100.11C402.869 96.5 400.169 93.6 396.519 93.6C393.069 93.56 390.209 96.34 390.209 100.07Z" fill="#09090C"/>
<path d="M424.739 107.97V93.96H420.449C419.969 93.96 416.719 94 416.719 97.37C416.719 99.16 417.749 100.59 420.449 100.59H422.639L417.319 107.97H414.859L419.229 102.3C416.489 102.1 414.579 100.04 414.579 97.3C414.579 94.6 416.639 92.06 420.489 92.06H426.919V107.97H424.739Z" fill="#09090C"/>
<path d="M430.579 92.01H432.719V107.97H430.579V92.01ZM433.989 99.87L440.219 92.01H442.759L436.649 99.71L443.199 107.97H440.419L433.989 99.87Z" fill="#09090C"/>
<path d="M445.189 86.38H447.329V90.07H445.189V86.38ZM445.189 92.01H447.329V107.97H445.189V92.01Z" fill="#09090C"/>
<path d="M466.699 103.29C465.629 105.67 463.329 108.33 458.919 108.33C453.479 108.33 450.379 104.12 450.379 99.96C450.379 96.15 453.319 91.62 458.919 91.62C462.609 91.62 465.469 93.68 466.699 96.86H464.279C462.689 93.72 459.629 93.6 458.919 93.6C455.229 93.6 452.569 96.42 452.569 99.95C452.569 103.6 455.459 106.38 458.919 106.38C461.099 106.38 463.169 105.31 464.279 103.29H466.699Z" fill="#09090C"/>
<path d="M478.799 92.01V93.96H474.669V107.97H472.529V93.96H468.399V92.01H478.799Z" fill="#09090C"/>
<path d="M483.169 98.12H487.459C491.789 98.12 492.899 101.21 492.899 103.04C492.899 104.87 491.789 107.96 487.459 107.96H480.989V92H483.169V98.12ZM483.169 106.02H487.419C489.679 106.02 490.719 104.59 490.719 103.04C490.719 101.49 489.679 100.06 487.419 100.06H483.169V106.02Z" fill="#09090C"/>
</svg>
