<svg width="258" height="196" viewBox="0 0 258 196" fill="none" xmlns="http://www.w3.org/2000/svg">
<path d="M106.98 69.6301L107.79 65.2801C108.69 60.1701 107.88 58.3301 107.88 58.3301C107.88 58.3301 109.11 57.6201 112.09 57.6201C118.33 57.6201 119.04 59.9801 118.04 65.6101L117.33 69.6301H125.32C125.32 69.6301 125.89 70.2901 125.89 71.3301C125.89 72.7001 124.94 73.6901 123.15 73.6901H116.58L112.84 94.6801C111.85 100.17 113.51 103 116.62 103C119.83 103 121.15 100.73 121.15 100.73C122.05 100.73 122.62 101.63 122.43 102.81C122 106.35 117.65 110 112.08 110C106.74 110 102.29 105.98 102.29 99.5101C102.29 97.6701 102.43 94.8301 103.19 90.7201L106.17 73.6501H100.97C100.97 73.6501 100.4 72.9901 100.4 71.9501C100.4 70.5801 101.39 69.5901 103.14 69.5901H106.97V69.6301H106.98Z" fill="#D26D44"/>
<path d="M135.25 57.53C136.29 57.53 137.33 57.76 138.32 58.28C139.64 58.99 140.64 60.03 141.3 61.4C141.77 62.39 142.01 63.48 142.01 64.62C142.01 66.7 141.2 68.4 139.65 69.73C138.42 70.72 137.05 71.24 135.49 71.24C133.79 71.24 132.33 70.67 131.1 69.54C129.68 68.21 128.98 66.46 128.98 64.24C128.98 62.07 129.64 60.41 130.92 59.19C132.08 58.1 133.5 57.53 135.25 57.53ZM134.97 60.98C134.26 60.98 133.88 61.59 133.88 62.82C133.88 64.43 134.21 65.84 134.78 67.12C135.02 67.59 135.35 67.87 135.73 67.87C136.44 67.87 136.77 67.26 136.77 65.98C136.77 65.27 136.67 64.56 136.53 63.76C136.39 62.95 136.2 62.34 135.96 61.82C135.77 61.31 135.44 61.03 134.97 60.98Z" fill="#D26D44"/>
<path d="M129.199 90.57C130.709 87.5 133.219 84.85 136.759 83.91C141.439 82.68 142.389 84.85 147.489 88.59C150.419 90.71 151.649 92.08 155.769 92.13C162.529 92.18 167.969 89.11 170.899 82.96C171.419 81.87 169.809 80.93 169.289 82.01C164.559 91.84 155.869 91.46 147.779 85.6C145.179 83.71 144.279 81.87 140.549 81.63C134.969 81.25 130.009 84.8 127.589 89.62C127.019 90.71 128.629 91.66 129.199 90.57Z" fill="#D26D44"/>
<path d="M129.199 101.06C130.709 97.9901 133.219 95.3401 136.759 94.4001C141.439 93.1701 142.389 95.3401 147.489 99.0801C150.419 101.2 151.649 102.58 155.769 102.62C162.529 102.67 167.969 99.6001 170.899 93.4501C171.419 92.3601 169.809 91.4201 169.289 92.5001C164.559 102.33 155.869 101.96 147.779 96.0901C145.179 94.2101 144.279 92.3601 140.549 92.1201C134.969 91.7401 130.009 95.2801 127.589 100.11C127.019 101.2 128.629 102.15 129.199 101.06Z" fill="#D26D44"/>
<path d="M104.95 48.2601C104.57 48.6801 103.63 49.4901 103.63 49.4901C96.1597 54.3101 89.0697 59.3701 81.6997 63.8601C79.3397 65.3201 76.5497 66.3601 73.7997 66.9801C72.2897 67.3101 69.6897 66.8901 68.9797 65.8501C67.5597 63.7701 69.8797 62.6901 71.3897 61.6401C88.6897 49.7701 103.44 35.3601 114.31 17.3001C116.25 14.0901 117.1 9.97006 117.57 6.15006C118.28 0.620056 120.83 -1.16994 125.65 1.76006C127.78 3.04006 129.66 4.83006 131.32 6.72006C133.4 9.08006 133.16 10.5001 130.94 14.2801C146.83 29.7401 163.51 44.0101 185.3 50.4401C186.96 50.9101 188.7 51.4901 190.17 52.4301C191.07 52.9501 191.97 54.2301 191.97 55.1701C191.97 56.1101 190.98 57.6301 190.12 57.8601C182.04 59.8501 173.86 62.2601 165.54 60.6501C162.32 60.0401 159.01 57.4401 156.65 54.8801C147.67 45.2401 139.07 35.2701 130.32 25.4801C129.09 24.1101 127.58 22.9701 126.25 21.8401C119.75 30.1101 111.99 39.3301 104.95 48.2601Z" fill="#D26D44"/>
<path d="M124.9 120.4L140.45 119.12C144.23 118.74 147.92 118.46 151.56 118.03C161.58 116.9 171.51 114.96 181.67 115.19C185.22 115.28 188.67 115.66 191.98 116.99C197.13 119.07 200.4 124.22 199.73 129.14C156.29 125.5 113.27 128.34 71.1497 137.56C69.4497 136.57 68.0297 135.72 66.5697 134.96C65.8097 134.54 64.9097 134.35 64.1597 133.97C62.2697 133.02 61.6997 131.46 62.0297 129.38C82.9197 126.45 103.86 123.42 124.9 120.4Z" fill="#D26D44"/>
<path d="M2.89961 157.03H1.10961V153.8H2.89961V148.69H6.53961V153.8H8.73961V157.03H6.53961V168.97H2.89961V157.03Z" fill="#09090C"/>
<path d="M13.8096 163C14.2696 164.87 15.8396 166.01 17.7696 166.01C18.9396 166.01 20.2696 165.68 21.1596 164.6H25.2596C23.2296 169.43 18.6096 169.49 17.9096 169.49C12.4596 169.49 9.87961 165.01 9.87961 161.51C9.87961 158.04 12.4896 153.32 17.9696 153.32C22.5796 153.32 25.7596 156.87 25.7596 161.41C25.7596 161.95 25.7596 162.47 25.6796 163.04H13.8096V163ZM21.9796 159.77C21.4696 157.84 19.8396 156.76 17.9896 156.76C15.9796 156.76 14.3796 157.95 13.7796 159.77H21.9796Z" fill="#09090C"/>
<path d="M28.0796 153.8H31.4196V155.78H31.4696C32.7496 153.66 35.1596 153.31 36.3596 153.31C40.4796 153.31 43.9596 156.48 43.9596 161.4C43.9596 165.55 41.1696 169.49 36.3596 169.49C35.1396 169.49 33.2096 169.17 31.7996 167.35H31.7496V174.05H28.1096V153.8H28.0796ZM31.4996 161.37C31.4996 164.27 33.3696 165.98 35.8096 165.98C38.4096 165.98 40.2896 164 40.2896 161.34C40.2896 159.31 39.0096 156.75 35.9496 156.75C33.2896 156.75 31.4996 158.71 31.4996 161.37Z" fill="#09090C"/>
<path d="M49.7696 148.7H46.1296V168.94H49.7696V148.7Z" fill="#09090C"/>
<path d="M68.0296 161.4C68.0296 165.8 64.6096 169.46 59.9696 169.46C55.3596 169.46 51.9096 165.82 51.9096 161.4C51.9096 156.98 55.2996 153.28 59.9696 153.28C64.6296 153.28 68.0296 156.97 68.0296 161.4ZM55.5696 161.4C55.5696 163.87 57.3096 165.99 59.9696 165.99C62.6596 165.99 64.3696 163.84 64.3696 161.4C64.3696 158.96 62.6896 156.76 59.9696 156.76C57.2796 156.75 55.5696 158.93 55.5696 161.4Z" fill="#09090C"/>
<path d="M78.3096 158.63H70.7096V161.86H78.3096V158.63Z" fill="#09090C"/>
<path d="M80.2596 153.8H84.3096L87.8096 163.76L91.3096 153.8H95.3496L89.2196 168.97H86.3696L80.2596 153.8Z" fill="#09090C"/>
<path d="M111.61 161.4C111.61 165.8 108.19 169.46 103.55 169.46C98.9396 169.46 95.4896 165.82 95.4896 161.4C95.4896 156.98 98.8796 153.28 103.55 153.28C108.21 153.28 111.61 156.97 111.61 161.4ZM99.1496 161.4C99.1496 163.87 100.89 165.99 103.55 165.99C106.24 165.99 107.95 163.84 107.95 161.4C107.95 158.96 106.24 156.76 103.55 156.76C100.86 156.76 99.1496 158.93 99.1496 161.4Z" fill="#09090C"/>
<path d="M128.92 168.94H125.59V166.88H125.53C124.58 168.21 122.98 169.43 120.54 169.43C116.5 169.43 113.05 166.04 113.05 161.4C113.05 156.63 116.5 153.26 120.65 153.26C123.44 153.26 124.77 154.78 125.21 155.32H125.27V148.67H128.9V168.94H128.92ZM116.68 161.37C116.68 164 118.47 165.98 121.05 165.98C123.63 165.98 125.47 164.03 125.47 161.37C125.47 158.68 123.57 156.76 121.05 156.76C118.61 156.75 116.68 158.6 116.68 161.37Z" fill="#09090C"/>
<path d="M146.99 168.94H143.65V166.88H143.6C141.83 169.3 139.34 169.43 138.52 169.43C134.67 169.43 131.11 166.39 131.11 161.48C131.11 156.71 134.45 153.26 138.62 153.26C140.79 153.26 142.47 154.16 143.59 155.89H143.65V153.75H146.99V168.94ZM134.75 161.5C134.75 164.08 136.57 165.98 139.2 165.98C141.81 165.98 143.54 164.08 143.54 161.34C143.54 158.71 141.8 156.76 139.2 156.76C136.57 156.76 134.75 158.76 134.75 161.5Z" fill="#09090C"/>
<path d="M154.1 165.3H150.46V168.94H154.1V165.3Z" fill="#09090C"/>
<path d="M172.82 164.03C171.71 167.23 169.1 169.46 165.33 169.46C159.63 169.46 156.95 165.06 156.95 161.26C156.95 157.73 159.53 153.28 165.2 153.28C169.03 153.28 171.82 155.53 172.83 158.81H168.73C168.02 157.43 166.72 156.72 165.14 156.72C162.24 156.72 160.61 158.86 160.61 161.28C160.61 163.89 162.37 165.95 165.14 165.95C165.77 165.95 167.72 165.84 168.73 163.97H172.83V164.03H172.82Z" fill="#09090C"/>
<path d="M190.46 161.4C190.46 165.8 187.04 169.46 182.4 169.46C177.76 169.46 174.34 165.82 174.34 161.4C174.34 156.98 177.73 153.28 182.4 153.28C187.07 153.28 190.46 156.97 190.46 161.4ZM178.01 161.4C178.01 163.87 179.75 165.99 182.41 165.99C185.07 165.99 186.81 163.84 186.81 161.4C186.81 158.96 185.1 156.76 182.41 156.76C179.72 156.76 178.01 158.93 178.01 161.4Z" fill="#09090C"/>
<path d="M192.63 153.8H195.97V155.18H196.03C197.09 153.69 198.82 153.28 199.97 153.28C201.49 153.28 203.36 153.93 204.39 155.64C205.26 154.44 206.78 153.28 209.25 153.28C212.94 153.28 215.44 155.8 215.44 160.06V168.93H211.8V160.87C211.8 159.51 211.64 156.72 208.82 156.72C206.03 156.72 205.86 159.51 205.86 160.87V168.93H202.22V160.87C202.22 159.51 202.06 156.72 199.24 156.72C196.44 156.72 196.28 159.51 196.28 160.87V168.93H192.64V153.8H192.63Z" fill="#09090C"/>
<path d="M222.54 165.3H218.9V168.94H222.54V165.3Z" fill="#09090C"/>
<path d="M239.49 168.94H236.15V167.56H236.09C234.79 169.22 233.08 169.46 232.16 169.46C226.43 169.46 226.03 164.39 226.03 162.02V153.8H229.67V161.51C229.67 163.22 229.83 165.99 232.76 165.99C235.69 165.99 235.85 163.2 235.85 161.51V153.8H239.49V168.94Z" fill="#09090C"/>
<path d="M257.57 168.94H254.24V166.88H254.18C252.42 169.3 249.92 169.43 249.1 169.43C245.25 169.43 241.69 166.39 241.69 161.48C241.69 156.71 245.03 153.26 249.21 153.26C251.38 153.26 253.06 154.16 254.18 155.89H254.24V153.75H257.57V168.94ZM245.33 161.5C245.33 164.08 247.15 165.98 249.78 165.98C252.39 165.98 254.12 164.08 254.12 161.34C254.12 158.71 252.38 156.76 249.78 156.76C247.17 156.76 245.33 158.76 245.33 161.5Z" fill="#09090C"/>
<path d="M11.7396 190.49H12.9296V194.78H11.3996V191.88H1.61961V194.78H0.0996094V190.49H1.27961L5.69961 180.54H7.35961L11.7396 190.49ZM10.1096 190.49L6.52961 182.26L2.94961 190.49H10.1096Z" fill="#09090C"/>
<path d="M25.8596 186.21C25.8596 189.59 23.2696 192.13 19.9496 192.13C16.6196 192.13 14.0296 189.59 14.0296 186.21C14.0296 182.83 16.5896 180.26 19.9496 180.26C23.2896 180.27 25.8596 182.83 25.8596 186.21ZM15.5496 186.21C15.5496 188.77 17.3796 190.75 19.9496 190.75C22.5096 190.75 24.3496 188.78 24.3496 186.21C24.3496 183.65 22.5196 181.65 19.9496 181.65C17.3796 181.65 15.5496 183.65 15.5496 186.21Z" fill="#09090C"/>
<path d="M39.1296 188.55C38.3696 190.24 36.7296 192.13 33.5996 192.13C29.7396 192.13 27.5396 189.14 27.5396 186.18C27.5396 183.47 29.6296 180.26 33.5996 180.26C36.2196 180.26 38.2496 181.72 39.1296 183.98H37.4396C36.3096 181.75 34.1396 181.67 33.6396 181.67C31.0196 181.67 29.1296 183.67 29.1296 186.18C29.1296 188.77 31.1896 190.74 33.6396 190.74C35.1896 190.74 36.6496 189.98 37.4396 188.54H39.1296V188.55Z" fill="#09090C"/>
<path d="M47.7596 180.55V181.93H44.8196V191.88H43.2996V181.93H40.3696V180.55H47.7596Z" fill="#09090C"/>
<path d="M58.9396 180.55L52.3996 195.85H50.7696L52.6596 191.34L48.2096 180.52H50.0396L53.5896 189.34L57.3096 180.52H58.9396V180.55Z" fill="#09090C"/>
<path d="M69.8196 180.55V191.88H68.2996V181.93H61.9596V191.88H60.4396V180.55H69.8196Z" fill="#09090C"/>
<path d="M73.9596 180.55V185.37H80.3096V180.55H81.8296V191.88H80.3096V186.75H73.9596V191.88H72.4396V180.55H73.9596Z" fill="#09090C"/>
<path d="M95.9996 191.87H94.5596V189.76H94.4996C93.8496 190.75 92.5496 192.16 90.0796 192.16C86.6696 192.16 84.0196 189.68 84.0196 186.16C84.0196 183.45 85.9896 180.3 90.0496 180.3C91.0396 180.3 93.1196 180.44 94.4996 182.53H94.5596V180.56H95.9996V191.87ZM85.5496 186.27C85.5496 188.86 87.6596 190.78 90.0896 190.78C92.5696 190.78 94.5396 188.78 94.5396 186.3C94.5396 183.74 92.6196 181.68 90.0296 181.68C87.5796 181.65 85.5496 183.62 85.5496 186.27Z" fill="#09090C"/>
<path d="M104.96 180.55V185.37H111.31V180.55H112.83V191.88H111.31V186.75H104.96V191.88H103.44V180.55H104.96Z" fill="#09090C"/>
<path d="M127 191.87H125.56V189.76H125.53C124.88 190.75 123.59 192.16 121.11 192.16C117.7 192.16 115.05 189.68 115.05 186.16C115.05 183.45 117.02 180.3 121.08 180.3C122.07 180.3 124.18 180.44 125.53 182.53H125.56V180.56H127V191.87ZM116.55 186.27C116.55 188.86 118.66 190.78 121.09 190.78C123.57 190.78 125.54 188.78 125.54 186.3C125.54 183.74 123.62 181.68 121.03 181.68C118.58 181.65 116.55 183.62 116.55 186.27Z" fill="#09090C"/>
<path d="M131.14 180.55V189.71L137.9 180.55H139.42V191.88H137.9V182.72L131.14 191.88H129.59V180.55H131.14ZM132.67 176.54C132.84 177.53 133.66 177.98 134.5 177.98C135.34 177.98 136.16 177.53 136.33 176.54H137.62C137.42 177.7 136.55 179.16 134.46 179.16C132.37 179.16 131.53 177.72 131.3 176.54H132.67Z" fill="#09090C"/>
<path d="M146.11 180.55C148.76 180.55 149.46 182.21 149.46 183.57C149.46 184.64 148.87 185.52 147.94 185.91C149.1 186.22 149.86 187.29 149.86 188.62C149.86 190.37 148.62 191.89 146.22 191.89H142.02V180.56H146.11V180.55ZM143.57 185.37H145.99C147.2 185.37 147.91 184.66 147.91 183.56C147.91 181.9 146.33 181.93 145.99 181.93H143.57V185.37ZM143.57 190.49H146.05C147.85 190.49 148.33 189.42 148.33 188.63C148.33 188.15 148.19 186.77 146.05 186.77H143.57V190.49Z" fill="#09090C"/>
<path d="M153.52 180.55V189.7L160.28 180.55H161.8V191.88H160.28V182.72L153.52 191.88H152V180.55H153.52Z" fill="#09090C"/>
<path d="M165.95 180.55V190.5H170.82V180.55H172.34V190.5H177.22V180.55H178.74V190.5H180.63V194.78H179.11V191.88H164.37V180.55H165.95Z" fill="#09090C"/>
<path d="M193.79 191.87H192.33V189.76H192.3C191.65 190.75 190.36 192.16 187.88 192.16C184.47 192.16 181.82 189.68 181.82 186.16C181.82 183.45 183.79 180.3 187.85 180.3C188.84 180.3 190.95 180.44 192.3 182.53H192.33V180.56H193.79V191.87ZM183.34 186.27C183.34 188.86 185.45 190.78 187.88 190.78C190.36 190.78 192.33 188.78 192.33 186.3C192.33 183.74 190.41 181.68 187.82 181.68C185.36 181.65 183.34 183.62 183.34 186.27Z" fill="#09090C"/>
<path d="M209.37 191.88H207.85V181.93H204.81C204.47 181.93 202.16 181.96 202.16 184.35C202.16 185.62 202.89 186.63 204.81 186.63H206.36L202.58 191.87H200.83L203.93 187.84C201.98 187.7 200.63 186.23 200.63 184.29C200.63 182.38 202.09 180.57 204.83 180.57H209.4V191.87H209.37V191.88Z" fill="#09090C"/>
<path d="M212 180.55H213.52V191.88H212V180.55ZM214.42 186.13L218.84 180.55H220.65L216.31 186.02L220.96 191.88H218.99L214.42 186.13Z" fill="#09090C"/>
<path d="M222.37 176.55H223.89V179.17H222.37V176.55ZM222.37 180.55H223.89V191.88H222.37V180.55Z" fill="#09090C"/>
<path d="M237.64 188.55C236.88 190.24 235.24 192.13 232.12 192.13C228.26 192.13 226.06 189.14 226.06 186.18C226.06 183.47 228.15 180.26 232.12 180.26C234.74 180.26 236.77 181.72 237.64 183.98H235.92C234.79 181.75 232.62 181.67 232.12 181.67C229.5 181.67 227.61 183.67 227.61 186.18C227.61 188.77 229.66 190.74 232.12 190.74C233.67 190.74 235.14 189.98 235.92 188.54H237.64V188.55Z" fill="#09090C"/>
<path d="M246.23 180.55V181.93H243.3V191.88H241.78V181.93H238.85V180.55H246.23Z" fill="#09090C"/>
<path d="M249.33 184.89H252.37C255.44 184.89 256.23 187.09 256.23 188.38C256.23 189.67 255.44 191.87 252.37 191.87H247.77V180.54H249.33V184.89ZM249.33 190.49H252.35C253.95 190.49 254.69 189.48 254.69 188.38C254.69 187.28 253.95 186.27 252.35 186.27H249.33V190.49Z" fill="#09090C"/>
</svg>
