<svg width="70" height="40" viewBox="0 0 70 40" fill="none" xmlns="http://www.w3.org/2000/svg">
<path d="M70 39.6164V39.8082V40H0V39.8082V39.6164V0.383552V0H0.383158H69.6168H70V0.383552V39.6164ZM24.1463 35.3384H23.7632V4.66163H24.1463V35.3384ZM44.6674 35.3384H44.2842V4.66163H44.6674V35.3384ZM0.383158 39.6164H69.6168V0.383552H0.383158V39.6164Z" fill="white"/>
<path d="M56.2065 35.3384H48.9854C49.1328 33.8779 49.6707 32.5355 50.5991 31.3111C51.358 30.2932 52.3159 29.4966 53.4654 28.9139C54.6149 28.3386 55.8233 28.0509 57.0907 28.0509C59.3086 28.0509 61.2243 28.818 62.8233 30.3448C63.538 31.0308 63.8991 31.5176 63.8991 31.8053C63.8991 31.9085 63.8622 31.9897 63.7812 32.0561C63.7075 32.1224 63.6043 32.1593 63.4938 32.1593C63.3243 32.1593 63.1328 32.0265 62.9412 31.761C61.4307 29.7547 59.4928 28.7442 57.1275 28.7442C56.8401 28.7442 56.5528 28.7664 56.258 28.8032L56.2065 35.3384ZM19.4675 35.3384H18.738V34.0623L18.7012 31.0677L18.6865 29.6957L18.6644 28.8401C18.6644 28.4344 18.8044 28.2279 19.0844 28.2279C19.2538 28.2279 19.3644 28.2722 19.4307 28.3681C19.497 28.4639 19.5265 28.641 19.5265 28.9065V29.0614C19.5265 29.2163 19.5191 29.4818 19.5191 29.8433L19.4822 33.6566L19.4675 35.3384ZM17.6328 35.3384H4.7233L4.65698 27.8149C7.53067 29.5925 11.8559 32.1003 17.6328 35.3384ZM30.7265 4.66162H39.937C40.4307 5.50986 40.6738 6.3286 40.6738 7.11783C40.6738 7.80379 40.4896 8.45288 40.1212 9.06509C39.7528 9.6773 39.2444 10.1789 38.5886 10.5698C37.3433 11.3148 35.818 11.6909 34.0201 11.6909C32.3696 11.6909 30.9107 11.2631 29.658 10.4075C28.7738 9.80269 28.3391 9.33062 28.3391 8.99133C28.3391 8.89544 28.3759 8.80693 28.457 8.72579C28.5307 8.64466 28.6265 8.60778 28.7296 8.60778C28.8622 8.60778 29.0243 8.71104 29.2012 8.91019C29.7612 9.5224 30.4538 10.0166 31.2643 10.3928C32.0822 10.7616 32.8854 10.9533 33.6812 10.9533C34.5654 10.9533 35.0001 10.6878 35.0001 10.1494C35.0001 9.81006 34.8454 9.42651 34.5433 8.9987C34.2338 8.5709 33.5043 7.73003 32.3328 6.46874C31.7065 5.79015 31.1759 5.19269 30.7265 4.66162Z" fill="white"/>
<path d="M18.7379 15.0177V13.1294L18.701 10.1348L18.6863 8.76285L18.6642 7.90724C18.6642 7.50156 18.8042 7.29503 19.0842 7.29503C19.2537 7.29503 19.3642 7.33929 19.4305 7.43518C19.4968 7.53106 19.5263 7.70809 19.5263 7.97362V8.12852C19.5189 8.28341 19.5189 8.54895 19.5189 8.91037L19.4821 12.7238L19.4526 16.2274L19.4821 19.908L19.5189 23.596C17.9642 22.6223 15.6947 21.2725 12.7105 19.5613C9.71892 17.8427 7.29471 16.4929 5.44524 15.5119L5.45997 16.0651L5.57787 21.9143L5.59261 22.6961C5.59261 23.0206 5.43787 23.1829 5.13576 23.1829C4.81892 23.1829 4.66418 22.9838 4.66418 22.5855L4.67892 21.7962L4.69366 20.5202L4.73787 14.7153L4.67155 6.89673C7.70734 8.77023 12.401 11.4846 18.7379 15.0177ZM65.3431 15.1578C65.2989 17.4001 64.5842 19.2736 63.1989 20.7783C62.4252 21.6192 61.5042 22.2683 60.4358 22.733C59.3673 23.1977 58.2621 23.4263 57.12 23.4263C56.1252 23.4263 55.1452 23.2346 54.18 22.8584C53.2221 22.4822 52.36 21.9511 51.6158 21.2725C50.6579 20.3948 49.9505 19.3474 49.4937 18.1156C49.1326 17.1346 48.9484 16.161 48.9484 15.1947C48.9484 13.395 49.501 11.7649 50.6063 10.2971C51.3652 9.27917 52.3231 8.48257 53.4726 7.89986C54.6221 7.32454 55.8305 7.03687 57.0979 7.03687C59.3158 7.03687 61.2316 7.80398 62.8305 9.33081C63.5452 10.0168 63.9063 10.5036 63.9063 10.7913C63.9063 10.8945 63.8694 10.9757 63.7884 11.042C63.7147 11.1084 63.6115 11.1453 63.501 11.1453C63.3316 11.1453 63.14 11.0125 62.9484 10.747C61.4379 8.74073 59.5 7.73759 57.1347 7.73759C56.8473 7.73759 56.56 7.75972 56.2652 7.7966L56.1989 15.8364L56.2579 22.6592C56.5452 22.7109 56.8326 22.7404 57.1126 22.7404C57.96 22.7404 58.7852 22.6002 59.581 22.3052C61.5926 21.5823 63.0368 20.2694 63.921 18.3516C64.2968 17.5403 64.5179 16.7142 64.5842 15.8807H58.7042C58.1884 15.8659 57.8716 15.8364 57.7684 15.8069C57.6652 15.77 57.6063 15.6742 57.6063 15.5119C57.6063 15.2759 57.7905 15.1505 58.1442 15.1505L58.8221 15.1578H65.3431ZM28.7221 29.6222C28.8547 29.6222 29.0168 29.7254 29.1937 29.9246C29.7537 30.5368 30.4463 31.031 31.2568 31.4072C32.0747 31.776 32.8779 31.9604 33.6737 31.9604C34.5579 31.9604 34.9926 31.6948 34.9926 31.1564C34.9926 30.8171 34.8379 30.4335 34.5358 30.0057C34.2263 29.5779 33.4968 28.737 32.3252 27.4757C30.8589 25.8825 29.8789 24.7024 29.3852 23.9353C28.7368 22.9174 28.42 21.9438 28.42 21.0218C28.42 19.6351 29.0389 18.4992 30.2694 17.614C31.4779 16.7437 32.9737 16.3159 34.7494 16.3159C35.9873 16.3159 37.1294 16.5667 38.1684 17.0682C38.5589 17.2674 38.8905 17.4887 39.1779 17.7468C39.4579 18.005 39.6052 18.2189 39.6052 18.3959C39.6052 18.477 39.5684 18.5508 39.4873 18.6246C39.4137 18.6983 39.3252 18.7352 39.2442 18.7352C39.1189 18.7352 38.9273 18.6172 38.6768 18.3885C38.2716 18.0124 37.741 17.6952 37.0779 17.4444C36.4147 17.1936 35.781 17.0682 35.1768 17.0682C34.801 17.0682 34.4916 17.1494 34.2558 17.3116C34.02 17.4739 33.9021 17.6804 33.9021 17.9386C33.9021 18.2484 34.0494 18.6246 34.3368 19.0745C34.6316 19.5171 35.1252 20.1071 35.8252 20.8521C38.0358 23.2124 39.3916 24.8056 39.8926 25.6244C40.4084 26.4947 40.6663 27.3282 40.6663 28.1396C40.6663 28.8256 40.4821 29.4746 40.1137 30.0868C39.7452 30.6991 39.2368 31.2006 38.581 31.5916C37.3358 32.3365 35.8105 32.7127 34.0126 32.7127C32.3621 32.7127 30.9031 32.2849 29.6505 31.4293C28.7663 30.8244 28.3316 30.3524 28.3316 30.0131C28.3316 29.9172 28.3684 29.8287 28.4494 29.7476C28.5231 29.659 28.6189 29.6222 28.7221 29.6222Z" fill="#FFD647"/>
</svg>
