<svg width="116" height="76" viewBox="0 0 116 76" fill="none" xmlns="http://www.w3.org/2000/svg">
<path d="M1.95256 67.9294L5.20862 73.0799V67.9294H6.4939V75.175H5.03724L1.78119 70.0246V75.175H0.495911V67.9294H1.95256Z" fill="white"/>
<path d="M13.2631 67.9293V69.1515H10.4355V70.8101H13.1774V72.0323H10.4355V73.8655H13.3488V75.0876H9.15021V67.842L13.2631 67.9293Z" fill="white"/>
<path d="M24.9163 67.9294L22.7742 75.175H21.3175L19.8609 70.2864L18.4042 75.175H16.9476L14.8054 67.9294H16.1764L17.7187 72.818L19.1754 67.9294H20.5464L22.003 72.818L23.4597 67.9294H24.9163Z" fill="white"/>
<path d="M28.258 71.8577C27.5725 71.5958 26.63 71.072 26.63 70.0244C26.63 68.715 27.6582 67.842 28.7721 67.842C29.3719 67.842 30.0574 68.1039 30.6572 68.715L29.886 69.588C29.4576 69.2388 29.1149 69.0642 28.7721 69.0642C28.258 69.0642 28.001 69.5007 28.001 69.8499C28.001 70.2863 28.3437 70.5482 28.8578 70.7228L29.4576 70.8974C30.1431 71.072 31.0856 71.7704 31.0856 72.9925C31.0856 74.302 30.0574 75.1749 28.7721 75.1749C28.001 75.1749 27.1441 74.8257 26.3729 74.0401L27.1441 73.0798C27.7439 73.6909 28.258 73.8655 28.6864 73.8655C29.2862 73.8655 29.7147 73.429 29.7147 72.9925C29.7147 72.4687 29.2005 72.1196 28.7721 71.945L28.258 71.8577Z" fill="#F4D21F"/>
<path d="M34.4274 67.9293V73.8655H37.0836V75.0876H33.1421V67.842H34.4274V67.9293Z" fill="#F4D21F"/>
<path d="M46.1663 71.5085C46.1663 73.6036 44.5382 75.1749 42.4818 75.1749C40.511 75.1749 38.7973 73.5163 38.7973 71.5085C38.7973 69.4134 40.4253 67.842 42.4818 67.842C44.5382 67.842 46.1663 69.4134 46.1663 71.5085ZM40.1683 71.5085C40.1683 72.8179 41.1965 73.8655 42.4818 73.8655C43.7671 73.8655 44.7953 72.8179 44.7953 71.5085C44.7953 70.199 43.7671 69.1515 42.4818 69.1515C41.1965 69.1515 40.1683 70.199 40.1683 71.5085Z" fill="#F4D21F"/>
<path d="M52.9355 67.9294V69.1516H51.1361V75.0877H49.8508V69.1516H47.9657V67.9294H52.9355Z" fill="#F4D21F"/>
<path d="M60.7328 74.3893C60.1331 74.913 59.2762 75.1749 58.4193 75.1749C56.4486 75.1749 54.7349 73.5163 54.7349 71.5085C54.7349 69.5007 56.3629 67.842 58.4193 67.842C59.2762 67.842 60.0474 68.1039 60.6472 68.6277L59.7903 69.588C59.3619 69.3261 58.9334 69.1515 58.4193 69.1515C57.1341 69.1515 56.1058 70.199 56.1058 71.5085C56.1058 72.8179 57.1341 73.8655 58.4193 73.8655C58.7621 73.8655 59.1048 73.7782 59.3619 73.6909V71.6831H60.6472V74.3893H60.7328Z" fill="white"/>
<path d="M66.8165 67.9294L69.5585 75.175H68.1875L67.5877 73.5164H64.6744L64.0746 75.175H62.7036L65.4456 67.9294H66.8165ZM66.131 69.5881L65.1885 72.1197H67.0736L66.131 69.5881Z" fill="white"/>
<path d="M78.7268 67.9294V75.175H77.4415V69.7627L75.2137 72.4688L72.9858 69.7627V75.175H71.7006V67.9294H73.2429L75.2994 70.5483L77.3558 67.9294H78.7268Z" fill="white"/>
<path d="M85.4103 67.9293V69.1515H82.5826V70.8101H85.3246V72.0323H82.5826V73.8655H85.496V75.0876H81.2974V67.842L85.4103 67.9293Z" fill="white"/>
<path d="M88.9234 71.8577C88.2379 71.5958 87.2954 71.072 87.2954 70.0244C87.2954 68.715 88.3236 67.842 89.4375 67.842C90.0373 67.842 90.7228 68.1039 91.3226 68.715L90.5514 69.588C90.123 69.2388 89.7803 69.0642 89.4375 69.0642C88.9234 69.0642 88.6664 69.5007 88.6664 69.8499C88.6664 70.2863 89.0091 70.5482 89.5232 70.7228L90.123 70.8974C90.8085 71.072 91.751 71.7704 91.751 72.9925C91.751 74.302 90.7228 75.1749 89.4375 75.1749C88.6664 75.1749 87.8095 74.8257 87.0383 74.0401L87.8095 73.0798C88.4093 73.6909 88.9234 73.8655 89.3518 73.8655C89.9516 73.8655 90.3801 73.429 90.3801 72.9925C90.3801 72.4687 89.866 72.1196 89.4375 71.945L88.9234 71.8577Z" fill="white"/>
<path d="M93.2076 74.4766C93.2076 74.0401 93.5504 73.6909 93.9788 73.6909C94.4072 73.6909 94.75 74.0401 94.75 74.4766C94.75 74.9131 94.4072 75.2623 93.9788 75.2623C93.5504 75.2623 93.2076 74.9131 93.2076 74.4766Z" fill="white"/>
<path d="M98.2631 67.9294L101.519 73.0799V67.9294H102.804V75.175H101.262L98.006 70.0246V75.175H96.7208V67.9294H98.2631Z" fill="white"/>
<path d="M109.488 67.9293V69.1515H106.66V70.8101H109.402V72.0323H106.66V73.8655H109.574V75.0876H105.375V67.842L109.488 67.9293Z" fill="white"/>
<path d="M116 67.9294V69.1516H114.201V75.0877H112.915V69.1516H111.116V67.9294H116Z" fill="white"/>
<path d="M108.346 28.6963C108.273 32.3775 107.095 35.4512 104.823 37.9297C103.548 39.3025 102.029 40.3716 100.28 41.1492C98.5301 41.9146 96.7078 42.2912 94.8369 42.2912C93.1968 42.2912 91.5932 41.9875 90.0017 41.3557C88.4223 40.7361 87.0131 39.8735 85.7861 38.7558C84.2067 37.3101 83.0526 35.597 82.2994 33.5681C81.7041 31.9523 81.4004 30.3608 81.4004 28.7692C81.4004 25.817 82.3115 23.132 84.1217 20.7386C85.373 19.0621 86.9402 17.7621 88.8354 16.8023C90.7306 15.8547 92.7108 15.3809 94.7883 15.3809C98.4329 15.3809 101.579 16.6322 104.216 19.1471C105.394 20.2648 105.977 21.0667 105.977 21.5405C105.977 21.7106 105.917 21.8321 105.783 21.9535C105.661 22.0629 105.503 22.1236 105.309 22.1236C105.03 22.1236 104.726 21.905 104.398 21.4797C101.907 18.1873 98.7245 16.535 94.8369 16.535C94.3631 16.535 93.8893 16.5715 93.4155 16.6322L93.3061 29.8262L93.4033 41.0277C93.8771 41.1127 94.3388 41.1613 94.8126 41.1613C96.2097 41.1613 97.5582 40.9305 98.8581 40.4445C102.175 39.2661 104.544 37.1035 105.989 33.9569C106.609 32.6326 106.973 31.2719 107.083 29.8991H97.4246C96.5742 29.8748 96.0639 29.8262 95.8938 29.7776C95.7237 29.7169 95.6387 29.5589 95.6387 29.2916C95.6387 28.9029 95.9424 28.6963 96.5256 28.6963L97.6432 28.7085L108.346 28.6963ZM31.7849 28.4776V25.3796L31.7242 20.4714L31.6999 18.2238L31.6634 16.8145C31.6634 16.1463 31.8942 15.8061 32.3437 15.8061C32.611 15.8061 32.8054 15.879 32.9026 16.0369C33.0119 16.1949 33.0605 16.4743 33.0605 16.9238V17.1789C33.0605 17.4341 33.0484 17.8593 33.0484 18.4546L32.9876 24.7114L32.939 30.4458L32.9876 36.4839L33.0484 42.5463C30.4971 40.9427 26.7675 38.7315 21.8594 35.9251C16.9513 33.1065 12.9665 30.8832 9.91716 29.2795L9.94146 30.1907L10.1358 39.7885L10.1601 41.0641C10.1601 41.5987 9.91716 41.866 9.40691 41.866C8.89667 41.866 8.62939 41.538 8.62939 40.8819L8.65369 39.582L8.67799 37.4802L8.75088 27.9552L8.64154 15.1257C13.659 18.2238 21.3734 22.6703 31.7849 28.4776ZM48.1857 52.4357C48.4044 52.4357 48.6717 52.6058 48.9632 52.9339C49.8865 53.9422 51.0164 54.7562 52.3527 55.3637C53.7012 55.9711 55.0133 56.2749 56.3254 56.2749C57.7711 56.2749 58.5 55.8375 58.5 54.9506C58.5 54.3918 58.2449 53.76 57.7468 53.0554C57.2365 52.3629 56.0338 50.9778 54.1143 48.9125C51.7088 46.3004 50.0931 44.3566 49.2912 43.0931C48.2343 41.4165 47.6998 39.8249 47.6998 38.3063C47.6998 36.0344 48.7202 34.1634 50.7369 32.7177C52.7293 31.2841 55.1712 30.5794 58.0991 30.5794C60.1401 30.5794 62.011 30.9925 63.7118 31.8187C64.3557 32.1467 64.9024 32.5112 65.364 32.9242C65.8257 33.3373 66.0686 33.7018 66.0686 33.9812C66.0686 34.1148 66.0079 34.2363 65.8743 34.3578C65.7528 34.4793 65.6191 34.5401 65.4855 34.5401C65.279 34.5401 64.9631 34.3457 64.5622 33.9691C63.894 33.3494 63.0193 32.827 61.9381 32.414C60.8447 32.0009 59.812 31.7944 58.8159 31.7944C58.1963 31.7944 57.6982 31.928 57.3094 32.1953C56.9207 32.4626 56.7263 32.8027 56.7263 33.228C56.7263 33.7382 56.9692 34.3457 57.443 35.0868C57.929 35.8157 58.7308 36.7876 59.8849 38.0026C63.5174 41.8781 65.7406 44.4902 66.5668 45.8388C67.4172 47.2602 67.8424 48.6452 67.8424 49.9695C67.8424 51.0993 67.5387 52.1563 66.9312 53.1647C66.3238 54.1731 65.4855 54.9871 64.4043 55.6431C62.3633 56.8702 59.8485 57.4776 56.8964 57.4776C54.1872 57.4776 51.7817 56.773 49.7286 55.3637C48.2829 54.3796 47.554 53.6021 47.554 53.0432C47.554 52.8853 47.6147 52.7395 47.7483 52.618C47.8698 52.5086 48.0156 52.4357 48.1857 52.4357Z" fill="#FFD647"/>
<path d="M116 0V0.631755V58H115.368V0.631755H1.63173V58H1V0.631755V0H1.63173H115.368H116Z" fill="white"/>
<path d="M93.3426 58.0001H81.4854C81.7284 55.6067 82.6152 53.3956 84.1338 51.391C85.3852 49.7144 86.9523 48.4144 88.8475 47.4547C90.7306 46.507 92.723 46.0332 94.8004 46.0332C98.4451 46.0332 101.592 47.2846 104.228 49.7994C105.406 50.9172 105.989 51.719 105.989 52.1928C105.989 52.3629 105.929 52.4965 105.795 52.6059C105.674 52.7152 105.516 52.776 105.321 52.776C105.03 52.776 104.726 52.5573 104.41 52.1321C101.92 48.8397 98.7366 47.1874 94.849 47.1874C94.3752 47.1874 93.9014 47.2238 93.4155 47.2846L93.3426 58.0001Z" fill="white"/>
<path d="M32.9755 58H31.7728V55.9104L31.712 50.99L31.6878 48.7424L31.6513 47.3331C31.6513 46.6649 31.8821 46.3247 32.3316 46.3247C32.5989 46.3247 32.7933 46.3976 32.8905 46.5555C32.9998 46.7135 33.0484 46.9929 33.0484 47.4424V47.6976C33.0484 47.9527 33.0362 48.3779 33.0362 48.9732L32.9755 55.23V58Z" fill="white"/>
<path d="M29.9626 58H8.75088L8.64154 45.6565C13.3674 48.5723 20.4744 52.6908 29.9626 58Z" fill="white"/>
<path d="M51.4781 7.65405H66.6033C67.4172 9.03905 67.8181 10.3876 67.8181 11.6876C67.8181 12.8174 67.5144 13.8744 66.907 14.8828C66.2995 15.8912 65.4613 16.7052 64.38 17.3612C62.3391 18.5761 59.8364 19.1957 56.8843 19.1957C54.1751 19.1957 51.7696 18.4911 49.7165 17.0818C48.2708 16.0977 47.5419 15.3202 47.5419 14.7613C47.5419 14.6034 47.6026 14.4576 47.7363 14.3239C47.8577 14.1903 48.0157 14.1295 48.1858 14.1295C48.4044 14.1295 48.6717 14.2996 48.9633 14.6277C49.8866 15.636 51.0164 16.45 52.3528 17.0575C53.7013 17.6649 55.0134 17.9687 56.3254 17.9687C57.7711 17.9687 58.5 17.5313 58.5 16.6444C58.5 16.0856 58.2449 15.4538 57.7468 14.7492C57.2366 14.0567 56.0338 12.6716 54.1143 10.6063C53.0939 9.51287 52.207 8.51664 51.4781 7.65405Z" fill="white"/>
<path d="M40.6657 7.65405H40.0339V58.0001H40.6657V7.65405Z" fill="white"/>
<path d="M74.3784 7.65405H73.7466V58.0001H74.3784V7.65405Z" fill="white"/>
</svg>
