<svg width="30" height="30" viewBox="0 0 30 30" fill="none" xmlns="http://www.w3.org/2000/svg">
<path d="M15 4C8.93461 4 4 8.93461 4 15C4 21.0654 8.93461 26 14.9999 26C21.0653 26 25.9999 21.0654 25.9999 15C25.9999 8.93461 21.0654 4 15 4ZM14.1152 4.85642H15.8216V6.56282H14.1152V4.85642ZM22.6822 15C22.6822 19.236 19.2359 22.6822 15 22.6822C10.7641 22.6822 7.3179 19.2359 7.3179 15C7.3179 10.7641 10.7642 7.3178 15 7.3178C19.2359 7.3178 22.6822 10.7641 22.6822 15ZM8.43075 7.22414L9.63736 8.43075L8.43075 9.63736L7.22414 8.43075L8.43075 7.22414ZM6.53125 15.8532H4.82485V14.1468H6.53125V15.8532ZM8.43075 22.776L7.22414 21.5693L8.43075 20.3627L9.63736 21.5693L8.43075 22.776ZM15.8216 25.1436H14.1152V23.4372H15.8216V25.1436ZM21.5692 22.776L20.3626 21.5693L21.5692 20.3627L22.7759 21.5693L21.5692 22.776ZM21.5692 9.63736L20.3626 8.43075L21.5692 7.22414L22.7759 8.43075L21.5692 9.63736ZM23.4056 15.8532V14.1468H25.112V15.8532H23.4056Z" fill="#F4D21F"/>
<path fill-rule="evenodd" clip-rule="evenodd" d="M15 21.2601C11.5481 21.2601 8.73987 18.4518 8.73987 14.9999C8.73987 11.5481 11.5481 8.73975 15 8.73975C18.4518 8.73975 21.2602 11.5481 21.2602 14.9999C21.2602 18.4518 18.4518 21.2601 15 21.2601ZM16.1225 13.4549L15 10L13.8774 13.4549H10.2447L13.1836 15.5902L12.061 19.0451L15 16.9098L17.9389 19.0451L16.8163 15.5902L19.7553 13.4549H16.1225Z" fill="#F4D21F"/>
</svg>
