<svg width="30" height="30" viewBox="0 0 30 30" fill="none" xmlns="http://www.w3.org/2000/svg">
<path d="M24.3214 10.75H20.9286V6.67858C20.9286 6.30381 20.6248 6 20.25 6H6.67858C6.30381 6 6 6.30381 6 6.67858V22.2857C6 23.7848 7.21523 25 8.7143 25H22.2857C23.7848 25 25 23.7848 25 22.2857V11.4286C25 11.0538 24.6962 10.75 24.3214 10.75ZM11.4286 9.39284H15.5C15.8748 9.39284 16.1786 9.69665 16.1786 10.0714C16.1786 10.4462 15.8748 10.75 15.5 10.75H11.4286C11.0538 10.75 10.75 10.4462 10.75 10.0714C10.75 9.69665 11.0538 9.39284 11.4286 9.39284ZM17.5357 22.2857H9.39284C9.01806 22.2857 8.71426 21.9819 8.71426 21.6071C8.71426 21.2323 9.01806 20.9285 9.39284 20.9285H17.5357C17.9105 20.9285 18.2143 21.2323 18.2143 21.6071C18.2143 21.9819 17.9105 22.2857 17.5357 22.2857ZM17.5357 19.5714H9.39284C9.01806 19.5714 8.71426 19.2676 8.71426 18.8928C8.71426 18.518 9.01806 18.2142 9.39284 18.2142H17.5357C17.9105 18.2142 18.2143 18.518 18.2143 18.8928C18.2143 19.2676 17.9105 19.5714 17.5357 19.5714ZM17.5357 16.8571H9.39284C9.01806 16.8571 8.71426 16.5533 8.71426 16.1786C8.71426 15.8038 9.01806 15.5 9.39284 15.5H17.5357C17.9105 15.5 18.2143 15.8038 18.2143 16.1786C18.2143 16.5533 17.9105 16.8571 17.5357 16.8571ZM17.5357 14.1429H9.39284C9.01806 14.1429 8.71426 13.839 8.71426 13.4643C8.71426 13.0895 9.01806 12.7857 9.39284 12.7857H17.5357C17.9105 12.7857 18.2143 13.0895 18.2143 13.4643C18.2143 13.839 17.9105 14.1429 17.5357 14.1429ZM23.6428 22.2857C23.6428 23.0352 23.0352 23.6428 22.2857 23.6428C21.5362 23.6428 20.9286 23.0352 20.9286 22.2857V12.1071H23.6429V22.2857H23.6428Z" fill="#F4D21F"/>
</svg>
