<svg width="20" height="20" viewBox="0 0 20 20" fill="none" xmlns="http://www.w3.org/2000/svg">
<g clip-path="url(#clip0)">
<path d="M10 20C12.6522 20 15.1957 18.9464 17.0711 17.0711C18.9464 15.1957 20 12.6522 20 10C20 7.34784 18.9464 4.8043 17.0711 2.92893C15.1957 1.05357 12.6522 2.54972e-06 10 2.78158e-06C7.34783 3.01344e-06 4.80429 1.05357 2.92893 2.92894C1.05357 4.8043 8.01261e-07 7.34784 1.03312e-06 10C1.26498e-06 12.6522 1.05357 15.1957 2.92893 17.0711C4.8043 18.9464 7.34784 20 10 20V20ZM5.625 10.625C5.45924 10.625 5.30027 10.5592 5.18306 10.4419C5.06585 10.3247 5 10.1658 5 10C5 9.83424 5.06585 9.67527 5.18306 9.55806C5.30027 9.44085 5.45924 9.375 5.625 9.375L12.8663 9.375L10.1825 6.6925C10.1244 6.63439 10.0783 6.56541 10.0468 6.48948C10.0154 6.41356 9.99921 6.33218 9.99921 6.25C9.99921 6.16782 10.0154 6.08645 10.0468 6.01052C10.0783 5.9346 10.1244 5.86561 10.1825 5.8075C10.2406 5.74939 10.3096 5.7033 10.3855 5.67185C10.4614 5.6404 10.5428 5.62421 10.625 5.62421C10.7072 5.62421 10.7886 5.6404 10.8645 5.67185C10.9404 5.7033 11.0094 5.74939 11.0675 5.8075L14.8175 9.5575C14.8757 9.61556 14.9219 9.68453 14.9534 9.76046C14.9849 9.83639 15.0011 9.91779 15.0011 10C15.0011 10.0822 14.9849 10.1636 14.9534 10.2395C14.9219 10.3155 14.8757 10.3844 14.8175 10.4425L11.0675 14.1925C10.9501 14.3099 10.791 14.3758 10.625 14.3758C10.459 14.3758 10.2999 14.3099 10.1825 14.1925C10.0651 14.0751 9.99921 13.916 9.99921 13.75C9.99921 13.584 10.0651 13.4249 10.1825 13.3075L12.8663 10.625L5.625 10.625Z" fill="#FF2F38"/>
</g>
<defs>
<clipPath id="clip0">
<rect width="20" height="20" fill="white" transform="translate(20 20) rotate(180)"/>
</clipPath>
</defs>
</svg>
