<svg width="41" height="42" viewBox="0 0 41 42" fill="none" xmlns="http://www.w3.org/2000/svg">
<path d="M20.4574 41.9647C19.9755 41.9647 19.5077 41.6992 19.2526 41.2941C17.6651 38.7237 14.9011 37.1871 11.8394 37.1871C10.8897 37.1871 9.95425 37.3407 9.04709 37.648C8.90535 37.7039 8.74943 37.7179 8.59351 37.7179C8.21081 37.7179 7.84228 37.5642 7.58714 37.2988C7.31783 37.0334 7.17609 36.6702 7.19026 36.293V36.1952C7.19026 36.1533 7.19026 36.1254 7.19026 36.0835C7.19026 32.3117 4.73811 29.0288 1.06697 27.9252C0.613391 27.7855 0.259034 27.4363 0.117291 26.9753L0.103117 26.9473C-0.0244515 26.5283 0.0605942 26.0673 0.329906 25.718C1.40715 24.3211 2.00247 22.6587 2.07334 20.9264C2.14421 19.0545 1.54889 17.1407 0.400777 15.5342C0.202337 15.2548 0.14564 14.8916 0.24486 14.5563L0.287383 14.4166C0.287383 14.4026 0.34408 14.249 0.386603 14.1093C0.514171 13.76 0.797657 13.4946 1.16619 13.3968L1.32211 13.3549C5.17751 12.405 7.87063 8.99642 7.87063 5.07096C7.87063 5.02905 7.87063 4.98714 7.87063 4.94524V4.83348C7.85645 4.35851 8.08324 3.91149 8.48012 3.64606C8.50847 3.63209 8.57934 3.57622 8.57934 3.57622L8.62186 3.54828C8.84865 3.40858 9.10379 3.33873 9.3731 3.33873C9.55736 3.33873 9.74163 3.38064 9.91172 3.45049L9.94007 3.46446C10.989 3.89752 12.0946 4.10706 13.2427 4.10706C16.0067 4.10706 18.6289 2.77995 20.259 0.572753C20.5283 0.209544 20.9535 0 21.4071 0C21.8606 0 22.2717 0.209544 22.541 0.558784C24.1994 2.72407 26.7224 3.96736 29.4722 3.96736C29.7982 3.96736 30.1243 3.95339 30.4644 3.91149C30.8613 3.86958 31.2865 3.78576 31.7685 3.66003C31.8819 3.63209 31.9953 3.61812 32.0945 3.61812C32.3638 3.61812 32.6189 3.70194 32.8457 3.85561L32.8882 3.88355C32.9166 3.89752 33.03 3.98133 33.03 3.98133C33.3702 4.23279 33.5686 4.62393 33.5544 5.04302V5.19669C33.5544 5.2386 33.5544 5.28051 33.5544 5.33638C33.5544 9.0942 36.1058 12.4609 39.7486 13.5226C40.188 13.6483 40.5282 13.9836 40.6841 14.4026C40.84 14.8217 40.7691 15.2967 40.4998 15.6599C39.4651 17.0988 38.9265 18.7891 38.9265 20.5632C38.9265 22.3933 39.5076 24.1395 40.6132 25.6202C40.8825 25.9834 40.9534 26.4305 40.8258 26.8496C40.6983 27.2686 40.3723 27.6039 39.947 27.7576C36.5452 28.9729 34.2631 32.1859 34.2348 35.7482C34.2348 36.5165 33.597 37.1451 32.8174 37.1451C32.6614 37.1451 32.5055 37.1172 32.3638 37.0753C31.4566 36.768 30.5211 36.6143 29.5715 36.6143C26.3397 36.6143 23.4056 38.3605 21.9032 41.1824L21.889 41.1963C21.648 41.6573 21.1661 41.9367 20.6417 41.9507C20.5566 41.9507 20.4857 41.9507 20.4716 41.9507L20.4574 41.9647Z" fill="#FF2F38"/>
<path d="M23.4765 37.1871C22.5268 37.1871 21.5913 37.3407 20.6841 37.648C20.5424 37.7039 20.3865 37.7179 20.2306 37.7179C19.8479 37.7179 19.4793 37.5642 19.2242 37.2988C18.9549 37.0334 18.8131 36.6702 18.8273 36.293V36.1952C18.8273 36.1533 18.8273 36.1254 18.8273 36.0835C18.8273 32.3117 16.3752 29.0288 12.704 27.9252C12.2505 27.7855 11.8961 27.4363 11.7544 26.9753L11.7402 26.9473C11.6126 26.5283 11.6977 26.0673 11.967 25.718C13.0442 24.3211 13.6395 22.6587 13.7104 20.9264C13.7813 19.0545 13.186 17.1407 12.0378 15.5342C11.8394 15.2548 11.7827 14.8916 11.8819 14.5563L11.9244 14.4166C11.9244 14.4026 11.9811 14.249 12.0237 14.1093C12.1512 13.76 12.4347 13.4946 12.8032 13.3968L12.9592 13.3549C16.8146 12.405 19.5077 8.99642 19.5077 5.07096C19.5077 5.02905 19.5077 4.98714 19.5077 4.94524V4.83348C19.4935 4.35851 19.7203 3.91149 20.1172 3.64606C20.1455 3.63209 20.2164 3.57622 20.2164 3.57622L20.2589 3.54828C20.4857 3.40858 20.7408 3.33873 21.0102 3.33873C21.1944 3.33873 21.3787 3.38064 21.5488 3.45049L21.5771 3.46446C22.626 3.89752 23.7316 4.10706 24.8797 4.10706C25.7444 4.10706 26.609 3.98133 27.4311 3.72988C25.5034 3.26888 23.7883 2.16529 22.5552 0.558784C22.2858 0.209544 21.8748 0 21.4212 0C20.9676 0 20.5424 0.209544 20.2731 0.572753C18.6431 2.77995 16.0208 4.10706 13.2568 4.10706C12.1087 4.10706 11.0031 3.89752 9.95422 3.46446L9.92587 3.45049C9.75578 3.38064 9.57151 3.33873 9.38725 3.33873C9.11793 3.33873 8.8628 3.40858 8.63601 3.54828L8.59348 3.57622C8.59348 3.57622 8.50844 3.63209 8.49426 3.64606C8.09739 3.91149 7.8706 4.35851 7.88477 4.83348V4.94524C7.88477 4.98714 7.88477 5.02905 7.88477 5.07096C7.88477 8.99642 5.19166 12.391 1.33625 13.3549L1.19451 13.3968C0.825977 13.4946 0.528317 13.7461 0.414923 14.1093C0.3724 14.249 0.315703 14.4026 0.315703 14.4166L0.27318 14.5563C0.159786 14.8916 0.216483 15.2548 0.429097 15.5342C1.57721 17.1407 2.17253 19.0545 2.10166 20.9264C2.03079 22.6726 1.43547 24.3211 0.358226 25.718C0.0889145 26.0673 0.00386883 26.5283 0.131437 26.9473L0.145612 26.9753C0.27318 27.4223 0.627537 27.7855 1.09529 27.9252C4.75225 29.0288 7.21858 32.3117 7.21858 36.0835C7.21858 36.1114 7.21858 36.1533 7.21858 36.1952V36.293C7.2044 36.6702 7.34615 37.0334 7.61546 37.2988C7.88477 37.5642 8.2533 37.7179 8.62183 37.7179C8.77775 37.7179 8.93367 37.69 9.07541 37.648C9.98256 37.3407 10.9181 37.1871 11.8677 37.1871C14.9152 37.1871 17.6934 38.7237 19.2809 41.2941C19.536 41.7132 20.0038 41.9647 20.4857 41.9647H20.5708C20.5849 41.9647 20.6558 41.9647 20.7408 41.9647C21.2653 41.9647 21.7472 41.6713 21.9882 41.2103L22.0024 41.1963C22.8812 39.5619 24.2419 38.2767 25.8578 37.4944C25.064 37.2988 24.2844 37.1871 23.4765 37.1871Z" fill="#FF2F38"/>
<path d="M20.5281 35.6778C28.7712 35.6778 35.4536 29.0919 35.4536 20.9678C35.4536 12.8437 28.7712 6.25781 20.5281 6.25781C12.2849 6.25781 5.60254 12.8437 5.60254 20.9678C5.60254 29.0919 12.2849 35.6778 20.5281 35.6778Z" fill="#F4B91F"/>
<path d="M20.5291 32.8849C27.2066 32.8849 32.6198 27.5499 32.6198 20.9688C32.6198 14.3877 27.2066 9.05273 20.5291 9.05273C13.8517 9.05273 8.43848 14.3877 8.43848 20.9688C8.43848 27.5499 13.8517 32.8849 20.5291 32.8849Z" fill="#F4D21F"/>
</svg>
