<svg width="30" height="30" viewBox="0 0 30 30" fill="none" xmlns="http://www.w3.org/2000/svg">
<path d="M8.53125 6H21.4688C22.4027 5.99994 23.3012 6.35725 23.98 6.99863C24.6588 7.64001 25.0665 8.51684 25.1194 9.44925L25.125 9.65625V20.3438C25.1251 21.2777 24.7678 22.1762 24.1264 22.855C23.485 23.5338 22.6082 23.9415 21.6758 23.9944L21.4688 24H8.53125C7.59735 24.0001 6.69882 23.6428 6.01999 23.0014C5.34116 22.36 4.9335 21.4832 4.88063 20.5507L4.875 20.3438V9.65625C4.87494 8.72235 5.23225 7.82382 5.87363 7.14499C6.51501 6.46616 7.39184 6.0585 8.32425 6.00563L8.53125 6H21.4688H8.53125ZM12.8096 12.2831C12.7703 12.3617 12.7498 12.4484 12.75 12.5363V17.466C12.75 17.5619 12.7745 17.6562 12.8213 17.74C12.868 17.8238 12.9354 17.8942 13.017 17.9446C13.0986 17.995 13.1918 18.0237 13.2876 18.0279C13.3834 18.0322 13.4787 18.0118 13.5645 17.9689L18.4943 15.5051C18.5879 15.4585 18.6666 15.3866 18.7216 15.2977C18.7767 15.2088 18.8058 15.1063 18.8058 15.0017C18.8058 14.8971 18.7767 14.7946 18.7216 14.7057C18.6666 14.6167 18.5879 14.5449 18.4943 14.4983L13.5645 12.0334C13.4311 11.9665 13.2767 11.9554 13.1351 12.0025C12.9935 12.0495 12.8765 12.1509 12.8096 12.2843V12.2831Z" fill="#F4D21F"/>
</svg>
