<svg width="30" height="24" viewBox="0 0 30 24" fill="none" xmlns="http://www.w3.org/2000/svg">
<path d="M29.3971 2.92185C28.3154 3.4015 27.1531 3.72567 25.9331 3.87151C27.1784 3.1251 28.1347 1.94313 28.5849 0.534822C27.4011 1.23735 26.1058 1.73233 24.7551 1.99836C23.6549 0.826267 22.0876 0.09375 20.3528 0.09375C17.022 0.09375 14.3215 2.79415 14.3215 6.12475C14.3215 6.59752 14.3749 7.05777 14.4776 7.4993C9.46519 7.2477 5.02117 4.84667 2.04643 1.19775C1.52739 2.08851 1.22997 3.12464 1.22997 4.22979C1.22997 6.32227 2.29481 8.1682 3.91303 9.24981C2.95527 9.21981 2.01858 8.96113 1.18117 8.49536C1.18082 8.52062 1.18082 8.54588 1.18082 8.57126C1.18082 11.4934 3.25975 13.9311 6.01872 14.4851C5.13059 14.7267 4.199 14.762 3.29512 14.5885C4.06255 16.9846 6.28995 18.7282 8.92903 18.777C6.86492 20.3945 4.26431 21.3588 1.43874 21.3588C0.951847 21.3588 0.471847 21.3302 0 21.2745C2.66905 22.9857 5.83923 23.9842 9.24517 23.9842C20.3388 23.9842 26.4051 14.794 26.4051 6.8242C26.4051 6.56261 26.3993 6.30252 26.3876 6.04391C27.5683 5.19034 28.5875 4.13312 29.3971 2.92185Z" fill="#55ACEE"/>
</svg>
